<?xml version="1.0" encoding="UTF-8"?>
<svg id="a" data-name="Слой 1" xmlns="http://www.w3.org/2000/svg" xmlns:xlink="http://www.w3.org/1999/xlink" viewBox="0 0 16 16">
  <defs>
    <style>
      .ac {
        fill: url(#p);
      }

      .ad {
        mask: url(#m);
      }

      .ae {
        fill: #fecf16;
      }

      .af {
        mask: url(#o);
      }

      .ag {
        fill: #fff;
      }

      .ah {
        fill: url(#r);
      }

      .ai {
        fill: #a46204;
      }

      .aj {
        fill: #a06432;
      }

      .ak {
        fill: url(#t);
      }

      .al {
        mask: url(#i);
      }

      .am {
        fill: #894636;
      }

      .an {
        fill: #fde7d6;
      }

      .ao {
        mask: url(#k);
      }

      .ap {
        mask: url(#q);
      }

      .aq {
        fill: #e0e0e0;
      }

      .ar {
        fill: #5f3d31;
      }

      .as {
        mask: url(#l);
      }

      .at {
        mask: url(#h);
      }

      .au {
        mask: url(#y);
      }

      .av {
        mask: url(#n);
      }

      .aw {
        fill: url(#v);
      }

      .ax {
        mask: url(#f);
      }

      .ay {
        fill: #752720;
      }

      .az {
        mask: url(#w);
      }

      .ba {
        fill: #d38a3b;
      }

      .bb {
        fill: #b56616;
      }

      .bc {
        mask: url(#e);
      }

      .bd {
        fill: url(#x);
      }

      .be {
        mask: url(#d);
      }

      .bf {
        fill: none;
      }

      .bg {
        fill: url(#z);
      }

      .bh {
        fill: #e7a952;
      }

      .bi {
        fill: #b0705d;
      }

      .bj {
        mask: url(#aa);
      }

      .bk {
        mask: url(#g);
      }

      .bl {
        mask: url(#b);
      }

      .bm {
        mask: url(#s);
      }

      .bn {
        fill: #9b6352;
      }

      .bo {
        mask: url(#u);
      }

      .bp {
        mask: url(#j);
      }

      .bq {
        fill: url(#ab);
      }

      .br {
        fill: #875646;
      }

      .bs {
        mask: url(#c);
      }

      .bt {
        fill: #281d13;
      }

      .bu {
        fill: #5b1613;
      }

      .bv {
        fill: #fdde62;
      }
    </style>
    <mask id="b" data-name="mask" x="2.57" y="10.12" width="3.16" height=".78" maskUnits="userSpaceOnUse"/>
    <mask id="c" data-name="mask-1" x="2.69" y="10.15" width="2.91" height=".72" maskUnits="userSpaceOnUse"/>
    <mask id="d" data-name="mask-2" x=".61" y="10.64" width=".96" height=".27" maskUnits="userSpaceOnUse"/>
    <mask id="e" data-name="mask-3" x=".73" y="10.68" width=".72" height=".2" maskUnits="userSpaceOnUse"/>
    <mask id="f" data-name="mask-4" x=".85" y="10.71" width=".49" height=".14" maskUnits="userSpaceOnUse"/>
    <mask id="g" data-name="mask-5" x="5.49" y="10.91" width=".79" height=".18" maskUnits="userSpaceOnUse"/>
    <mask id="h" data-name="mask-6" x="4.49" y="10.71" width="1.08" height=".25" maskUnits="userSpaceOnUse"/>
    <mask id="i" data-name="mask-7" x="5.54" y="10.1" width="1.25" height=".24" maskUnits="userSpaceOnUse"/>
    <mask id="j" data-name="mask-8" x="5.61" y="10.94" width=".56" height=".13" maskUnits="userSpaceOnUse"/>
    <mask id="k" data-name="mask-9" x="5.72" y="10.96" width=".34" height=".08" maskUnits="userSpaceOnUse"/>
    <mask id="l" data-name="mask-10" x="6.79" y="10.32" width=".56" height=".14" maskUnits="userSpaceOnUse"/>
    <mask id="m" data-name="mask-11" x="6.86" y="10.34" width=".4" height=".1" maskUnits="userSpaceOnUse"/>
    <mask id="n" data-name="mask-12" x="6.94" y="10.36" width=".24" height=".06" maskUnits="userSpaceOnUse"/>
    <mask id="o" data-name="mask-13" x="8.73" y="7.65" width="6.77" height="3" maskUnits="userSpaceOnUse"/>
    <linearGradient id="p" data-name="Безымянный градиент" x1="12.1" y1="-8.06" x2="12.1" y2="-10.52" gradientTransform="translate(0 10.99) scale(1 -1)" gradientUnits="userSpaceOnUse">
      <stop offset="0" stop-color="#894636"/>
      <stop offset="1" stop-color="#752720"/>
    </linearGradient>
    <mask id="q" data-name="mask-14" x="6.32" y="4.31" width="1.54" height="3.47" maskUnits="userSpaceOnUse"/>
    <linearGradient id="r" data-name="Безымянный градиент 2" x1="7.09" y1="-8.26" x2="7.09" y2="-5.64" gradientTransform="translate(0 10.99) scale(1 -1)" gradientUnits="userSpaceOnUse">
      <stop offset="0" stop-color="#fde7d6"/>
      <stop offset="1" stop-color="#bd6f1f"/>
    </linearGradient>
    <mask id="s" data-name="mask-15" x="7.89" y="4.31" width="1.55" height="3.48" maskUnits="userSpaceOnUse"/>
    <linearGradient id="t" data-name="Безымянный градиент 3" x1="8.66" y1="-8.19" x2="8.66" y2="-5.56" gradientTransform="translate(0 10.99) scale(1 -1)" gradientUnits="userSpaceOnUse">
      <stop offset="0" stop-color="#fde7d6"/>
      <stop offset="1" stop-color="#bd6f1f"/>
    </linearGradient>
    <mask id="u" data-name="mask-16" x="9.46" y="4.31" width="1.55" height="3.48" maskUnits="userSpaceOnUse"/>
    <linearGradient id="v" data-name="Безымянный градиент 4" x1="10.24" y1="-8.26" x2="10.24" y2="-5.64" gradientTransform="translate(0 10.99) scale(1 -1)" gradientUnits="userSpaceOnUse">
      <stop offset="0" stop-color="#fde7d6"/>
      <stop offset="1" stop-color="#bd6f1f"/>
    </linearGradient>
    <mask id="w" data-name="mask-17" x="11.04" y="4.28" width="1.64" height="3.53" maskUnits="userSpaceOnUse"/>
    <linearGradient id="x" data-name="Безымянный градиент 5" x1="11.86" y1="-8.26" x2="11.86" y2="-5.64" gradientTransform="translate(0 10.99) scale(1 -1)" gradientUnits="userSpaceOnUse">
      <stop offset="0" stop-color="#fde7d6"/>
      <stop offset="1" stop-color="#bd6f1f"/>
    </linearGradient>
    <mask id="y" data-name="mask-18" x="12.71" y="4.33" width=".83" height="3.42" maskUnits="userSpaceOnUse"/>
    <linearGradient id="z" data-name="Безымянный градиент 6" x1="13.12" y1="-8.45" x2="13.12" y2="-5.82" gradientTransform="translate(0 10.99) scale(1 -1)" gradientUnits="userSpaceOnUse">
      <stop offset="0" stop-color="#fde7d6"/>
      <stop offset="1" stop-color="#bd6f1f"/>
    </linearGradient>
    <mask id="aa" data-name="mask-19" x="13.57" y="4.33" width="1.59" height="3.44" maskUnits="userSpaceOnUse"/>
    <linearGradient id="ab" data-name="Безымянный градиент 7" x1="14.37" y1="-8.26" x2="14.37" y2="-5.64" gradientTransform="translate(0 10.99) scale(1 -1)" gradientUnits="userSpaceOnUse">
      <stop offset="0" stop-color="#fde7d6"/>
      <stop offset="1" stop-color="#bd6f1f"/>
    </linearGradient>
  </defs>
  <g class="bl">
    <path class="bt" d="M5.73,10.52c0-.22-.71-.39-1.58-.39s-1.58,.17-1.58,.39,.71,.39,1.58,.39,1.58-.17,1.58-.39Z"/>
  </g>
  <g class="bs">
    <path class="bt" d="M5.6,10.52c0-.2-.65-.36-1.46-.36s-1.46,.16-1.46,.36,.65,.36,1.46,.36,1.46-.16,1.46-.36Z"/>
  </g>
  <g class="be">
    <path class="bt" d="M1.57,10.78c0-.07-.21-.13-.48-.13s-.48,.06-.48,.13,.21,.13,.48,.13,.48-.06,.48-.13Z"/>
  </g>
  <g class="bc">
    <path class="bt" d="M1.45,10.78c0-.05-.16-.1-.36-.1s-.36,.05-.36,.1,.16,.1,.36,.1,.36-.05,.36-.1Z"/>
  </g>
  <g class="ax">
    <path class="bt" d="M1.34,10.78s-.11-.07-.24-.07-.25,.03-.25,.07,.11,.07,.25,.07,.24-.03,.24-.07Z"/>
  </g>
  <g class="bk">
    <path class="bt" d="M6.28,11c0-.05-.17-.09-.39-.09s-.39,.04-.39,.09,.18,.09,.39,.09,.39-.04,.39-.09"/>
  </g>
  <g class="at">
    <path class="bt" d="M5.57,10.94s-.36-.13-.55-.17c-.2-.05-.53-.08-.53-.05s.32,.13,.52,.16c.2,.03,.56,.09,.56,.06Z"/>
  </g>
  <g class="al">
    <path class="bt" d="M6.79,10.3c0-.06-.42-.14-.64-.17-.23-.04-.61-.05-.6,.01,0,.06,.38,.14,.61,.17,.23,.02,.64,.05,.64,0Z"/>
  </g>
  <g class="bp">
    <path class="bt" d="M6.17,11s-.13-.06-.28-.06-.28,.03-.28,.06,.13,.07,.28,.07,.28-.03,.28-.07Z"/>
  </g>
  <g class="ao">
    <path class="bt" d="M6.06,11s-.08-.04-.17-.04-.17,.02-.17,.04,.08,.04,.17,.04,.17-.02,.17-.04Z"/>
  </g>
  <g class="as">
    <path class="bt" d="M7.35,10.39s-.13-.07-.28-.07-.28,.03-.28,.07c0,.04,.12,.07,.28,.07s.28-.03,.28-.07Z"/>
  </g>
  <g class="ad">
    <path class="bt" d="M7.26,10.39s-.09-.05-.2-.05-.2,.02-.2,.05c0,.03,.09,.05,.2,.05s.2-.02,.2-.05Z"/>
  </g>
  <g class="av">
    <path class="bt" d="M7.19,10.39s-.06-.03-.12-.03-.12,.02-.12,.03,.05,.03,.12,.03,.12-.01,.12-.03Z"/>
  </g>
  <path class="bh" d="M5.58,7.7l.04-.05s.03-.03,.05-.04c.02,0,.04-.01,.06,0,.02,0,.04,0,.05,.02,.02,.01,.03,.03,.04,.04l.67,.99s.04,.09,.03,.13c0,.05-.02,.09-.05,.13l-.04,.04s-.03,.03-.05,.04c-.02,0-.04,.01-.06,0-.02,0-.04,0-.05-.02-.02-.01-.03-.03-.04-.04l-.67-.99s-.04-.08-.03-.13c0-.05,.02-.09,.05-.13"/>
  <path class="bh" d="M6.22,8.79l.04-.05s.03-.03,.05-.04c.02,0,.04-.01,.06,0,.02,0,.04,0,.05,.02,.02,.01,.03,.03,.04,.04l.04,.05s.04,.09,.03,.14c0,.05-.02,.1-.05,.13l-.04,.05s-.03,.03-.05,.04c-.02,0-.04,.01-.06,0-.02,0-.04,0-.06-.02-.02-.01-.03-.03-.05-.04l-.03-.05s-.04-.09-.04-.14c0-.05,.02-.1,.05-.13"/>
  <path class="ba" d="M6.6,7.49s.04-.26,.13-.22c.09,.04,.2,.11,.09,.28-.08,.12-.22,.05-.22-.06Z"/>
  <path class="ba" d="M6.64,7.88s-.12-.49,0-.44c.13,.05,.3,.1,.18,.36-.12,.26-.16,.24-.19,.08Z"/>
  <path class="bh" d="M6.38,9.09l-.09-.05s-.03-.02-.04-.03c-.01-.01-.02-.03-.03-.05,0-.02,0-.04,0-.06,0-.02,0-.04,0-.06l.51-.85s.04-.06,.07-.08c.03-.01,.06-.01,.09,0l.09,.05s.03,.02,.04,.03c.01,.01,.02,.03,.03,.05,0,.02,0,.04,0,.06,0,.02,0,.04,0,.06l-.5,.85s-.04,.07-.07,.08c-.03,.01-.06,.01-.09,0"/>
  <path class="bh" d="M7.07,8.18s.43-.41,.26-.62c-.18-.21-.4-.4-.47-.25-.07,.15-.28,.62-.14,.71,.14,.08,.3,.23,.36,.16Z"/>
  <path class="bu" d="M9.43,7.53c-.6,.25-1.3,2.99,.29,3.15,.25,.02,.57,.03,.92,.02,.34,0,.64,.13,1.02,.09,.62-.05,1.34-.3,1.93-.41,1.13-.22,2.04-.53,2.07-.88,.06-.78-.61-2.02-1.13-2.06-.52-.04-3.24-.67-5.11,.09Z"/>
  <path class="ae" d="M9.4,7.4c-.59,.23-1.28,2.88,.29,3.03,.75,.17,1.81,.13,2.8-.03,.48-.07,.83-.45,1.36-.36,.91-.26,1.58-.52,1.6-.83,.06-.75-.39-1.93-.9-1.97-.51-.04-3.31-.58-5.15,.15"/>
  <path class="bv" d="M11.14,10.27s0,.01-.01,.01c0,0,0,0-.01,0,0,0-.01,0-.02,0,0,0-.01,0-.02,0l-.08,.14h.13s.27-.58,.27-.58c-.09,.14-.17,.28-.26,.42m-.74-.27c.07-.17,.15-.33,.23-.49,.17-.32,.34-.64,.52-.96l.15-.27-.6,.85-.21,.36c-.19,.32-.38,.64-.58,.95h.14s.34-.45,.34-.45Zm.98-.57c.07-.15,.14-.3,.21-.44-.36,.51-.73,1-1.13,1.47,.13,0,.27,0,.41-.02,.11-.2,.21-.39,.31-.59l.18-.42m-1.02,.98c.15-.18,.3-.36,.44-.55,.43-.55,.84-1.12,1.23-1.72l.2-.47c-.06,.06-.11,.12-.17,.19-.07,.09-.14,.19-.2,.29-.06,.11-.12,.22-.19,.32l-.24,.33c-.26,.39-.51,.77-.77,1.16l-.3,.44h0Zm1.97-2.46h0s.02-.1,.02-.1c-.11,.19-.22,.37-.33,.56-.15,.32-.3,.64-.46,.96l.12-.22c.17-.31,.34-.62,.51-.93l.13-.28Zm-1.11-.56l-.02,.04,.33-.4h-.14s-.17,.37-.17,.37m1.09,.05l.04-.03,.03-.08-.07,.11Zm-1.81,.56c-.09,.22-.17,.44-.26,.66,.22-.29,.44-.58,.67-.86l.29-.61,.07-.15h-.13s-.2,.31-.2,.31c-.14,.22-.29,.43-.43,.65m1.02-.78s.01,0,.02,.01l.03-.07-.05,.06m.52,1.76l-.23,.47c-.16,.32-.32,.65-.48,.97l.18-.02,.08-.11,.13-.36c.11-.31,.22-.63,.32-.95Zm-.44-1.61c.03,.09,.03,.19,.02,.29l.2-.29,.19-.33h-.19l-.19,.29-.02,.05m-1.28,.58l-.25,.5,.03-.04c.1-.15,.2-.3,.3-.45l.06-.15c.05-.14,.1-.29,.15-.43l-.16,.32s0,.03,0,.04l-.12,.22Zm2.22-.63l.16-.26h-.1s-.02,.05-.02,.05l-.07,.19s.01,0,.02,0,.01,0,.02,.02m2.77,1.1c-.1,.09-.19,.19-.29,.29-.2,.2-.41,.39-.62,.58-.09,.22-.18,.44-.27,.66,.2-.05,.38-.11,.54-.17l.15-.32,.51-1.06h-.01m-4.12,.32c-.16,.29-.33,.57-.48,.87l.13-.17,.45-.61,.08-.11,.4-.62c.22-.35,.44-.7,.66-1.05h-.23s-.28,.38-.28,.38l-.73,1.31Zm-.92,.41l.04-.08-.53,.67v.02s.23-.29,.23-.29c.09-.1,.17-.21,.25-.32Zm.53-.39c.06-.1,.11-.21,.17-.32l.09-.18s.06-.07,.1-.09c.13-.11,.26-.24,.33-.42,.03-.08,.04-.17,.03-.25-.01,.02-.03,.04-.04,.05h0c-.05,.2-.13,.36-.25,.49-.04,.04-.07,.08-.11,.13l-.1,.15-.21,.3c-.14,.21-.29,.41-.45,.6h0c-.15,.32-.31,.62-.47,.93,.24-.36,.49-.72,.73-1.07,.06-.11,.12-.22,.18-.33Zm1.63-1.23v-.02s0,0,0,0l-.02,.05,.02-.04Zm-2.98,2.19l.53-.7c.08-.2,.16-.39,.24-.59l-.53,.79-.25,.5m5.26-1.77c-.07,.13-.14,.27-.21,.4-.19,.36-.39,.71-.58,1.06,0,0,0,.02,0,.03l-.02,.14c.12-.1,.23-.2,.35-.3,.15-.44,.31-.88,.46-1.33Zm-4.06-.36l.34-.51-.16,.02-.06,.15-.12,.35Zm4.13-.23l-.07,.13c-.34,.6-.69,1.2-1.06,1.78l-.02,.04s.07-.02,.11-.02c.04,0,.07,.02,.11,.04,.36-.62,.69-1.26,1.01-1.91-.02-.02-.05-.04-.07-.06m-6.04,2.04c.02,.18,.06,.35,.13,.5l.12-.19c.53-.86,1.06-1.71,1.58-2.58h-.02l-.39,.49c-.47,.59-.95,1.18-1.41,1.78m3.59-1.02c-.04,.16-.09,.32-.14,.47-.12,.39-.25,.77-.39,1.16,.38-.5,.75-1.01,1.12-1.53,.3-.43,.6-.86,.89-1.3-.3-.04-.6-.07-.9-.09-.19,.44-.39,.87-.59,1.3Zm-2.71,1.73l-.04,.05-.02,.04,.06-.09m5.66-1.31l-.4,.82-.06,.12c.38-.15,.62-.32,.63-.5,.02-.21,0-.45-.06-.69l-.12,.26Zm-5.88-1.38c-.21,.43-.42,.87-.63,1.3-.03,.17-.04,.34-.03,.5,.24-.31,.48-.61,.72-.91l.75-.94,.18-.22c-.33,.06-.66,.15-.97,.27h0Zm-.48,.75l.27-.57c-.12,.16-.23,.38-.31,.65l.04-.08Zm6.09-.59c-.08,.26-.17,.53-.26,.79-.08,.23-.16,.46-.25,.69l.02-.02c.18-.16,.35-.32,.52-.49,.08-.09,.17-.17,.26-.26l.04-.03c-.07-.24-.18-.47-.32-.67Zm-5.17,2.41l.02-.04-.32,.47,.07,.02c.08-.15,.16-.3,.23-.45m4.52-2.72l.02-.03-.42-.06c-.35,.54-.71,1.06-1.08,1.58-.38,.53-.77,1.06-1.16,1.58l-.02,.03v.02c.35-.04,.71-.08,1.07-.14,.15-.29,.3-.58,.46-.87,.39-.7,.78-1.39,1.15-2.1m-.16,.86c.17-.28,.33-.56,.49-.85-.04-.02-.08-.03-.13-.03h-.07c-.2,.39-.41,.78-.63,1.17-.33,.59-.67,1.18-.98,1.79h.01c.08-.13,.17-.25,.25-.37,.37-.55,.71-1.14,1.06-1.71Zm-.33,1.61c-.02,.1-.04,.2-.06,.29l.18-.05,.02-.06,.15-.44c-.1,.09-.2,.17-.3,.25Zm-4.79,.44l.03-.04,.1-.2-.14,.22v.02Zm4.68-.33l-.14,.11-.09,.15,.18-.04,.05-.22m-.16-.35c-.05,.07-.08,.15-.11,.24-.02,.05-.05,.09-.08,.13l-.1,.14-.05,.07,.3-.22,.25-.43c-.07-.03-.14-.02-.2,.07Z"/>
  <g class="af">
    <path class="ac" d="M8.67,7.65h6.86v3.03h-6.87v-3.03Z"/>
  </g>
  <path class="bv" d="M9.39,9.46c-.01-.16,0-.32,.03-.47,.03-.15,.08-.29,.15-.42,.07-.13,.16-.24,.26-.33,.1-.09,.22-.16,.34-.19,.06-.02,.12-.02,.18-.02,.06,0,.11,.03,.16,.07,.05,.04,.09,.09,.11,.15,.03,.07,.03,.16,.02,.23-.01,.09-.04,.18-.1,.25-.06,.07-.13,.12-.2,.16-.06,.03-.12,.03-.17,0-.02,0-.04-.01-.05-.03-.01-.02-.02-.04-.03-.06,0,0,0-.02,0-.03s0-.02,.01-.02h.02s.01,0,.02,0c.01,.01,.02,.02,.04,.02,.01,0,.03,0,.04,0,.02,0,.04,0,.07,0,.02,0,.04-.02,.06-.03,.03-.02,.05-.05,.07-.08,.02-.03,.03-.07,.03-.1,0-.04,0-.07,0-.11,0-.03-.02-.06-.04-.09-.02-.03-.05-.05-.08-.06-.04,0-.07,0-.11,0-.03,.01-.06,.03-.08,.05-.03,.02-.05,.04-.07,.06-.1,.1-.18,.23-.23,.37-.05,.14-.09,.28-.1,.43,0,.07-.01,.14,0,.2,0,.07,.01,.14,.03,.2v.03s.02,.03,.02,.03c.02,.04,.04,.08,.07,.11,.03,.03,.06,.04,.1,.05,.03,0,.07,0,.11,0,.04,0,.07-.03,.11-.05,.04-.03,.08-.06,.11-.1,.03-.03,.06-.07,.09-.11,.02-.04,.05-.07,.07-.11l.08-.11s.02-.02,.02-.02c.02-.01,.03,0,.03,.02v.03s0,.02,0,.03c-.02,.09-.05,.17-.1,.25-.04,.08-.09,.15-.15,.22-.06,.07-.12,.12-.19,.16-.06,.04-.13,.06-.2,.06-.07,0-.13-.01-.2-.05-.06-.03-.12-.08-.16-.14-.04-.06-.08-.13-.11-.21-.03-.08-.04-.16-.05-.25m1.79,.13c-.03,.05-.07,.1-.12,.13-.05,.03-.1,.05-.15,.04-.06,0-.11-.03-.16-.08-.04-.05-.08-.11-.1-.18-.02-.08-.03-.17-.03-.26,0-.09,.03-.17,.06-.25,.02-.05,.05-.1,.08-.14,.03-.05,.07-.09,.1-.12,.04-.03,.08-.06,.12-.08,.04-.02,.09-.03,.13-.03,.03,0,.07,0,.1,.02,.03,.02,.06,.05,.09,.08l.02-.04,.02-.03,.03-.04s.02-.03,.03-.04c.01-.01,.03-.02,.05-.02,.02,0,.03,0,.05,.02,.02,.01,.03,.03,.03,.05,0,.02,0,.04,0,.06v.06s-.02,.06-.02,.06l-.05,.26c-.01,.09-.02,.18-.03,.27v.13s0,.09,0,.13c0,.02,0,.05-.01,.07,0,.02-.01,.04-.03,.06-.01,.01-.03,.02-.05,.03-.02,0-.04,0-.05,0-.02,0-.03-.02-.04-.04-.01-.02-.03-.04-.04-.06l-.04-.07Zm-.04-.23s.01-.02,.02-.04v-.05s.04-.2,.04-.2c.01-.06,.03-.13,.05-.19,0-.01,0-.02,0-.03,0,0,0-.01,0-.02,0,0,0,0,0-.01-.04,0-.08,.02-.11,.04-.03,.02-.06,.05-.09,.09-.03,.04-.05,.08-.07,.12-.02,.04-.03,.08-.04,.13-.02,.06-.02,.12,0,.18,0,.02,0,.04,.02,.05,0,.02,.02,.03,.03,.04,.01,0,.03,.01,.04,.01s.03,0,.04-.01c.04-.03,.07-.07,.08-.12Zm.77-.24l-.06-.22c-.02-.05-.03-.11-.03-.17,0-.06,0-.11,.02-.17,.01-.05,.03-.1,.06-.14,.03-.04,.06-.07,.1-.1,.04-.02,.08-.04,.13-.04,.05,0,.09,0,.13,.03,.01,0,.02,.02,.03,.04,0,.02,0,.03,0,.05h0s-.06,.05-.09,.08c-.02,.03-.03,.06-.04,.09,0,.03,0,.07,0,.1,0,.03,0,.07,.02,.1l.04,.14s.02,.1,.02,.14c.01,.11,0,.23-.04,.33-.04,.11-.1,.2-.18,.26-.04,.03-.09,.06-.14,.06-.05,0-.1,0-.15-.01-.05-.02-.09-.05-.12-.09-.03-.05-.05-.11-.05-.17,0-.06,.02-.11,.05-.16,.03-.05,.07-.08,.12-.09h.02s.02-.01,.02,0c0,0,.02,0,.02,0,0,0,0,0,0,0,0,0,0,0,0,.01,0,0,0,.01,0,.02,0,0,0,.02-.01,.02,0,0,0,.01-.01,.02,0,0,0,0-.01,.02l-.03,.04s-.02,.03-.02,.05c0,.01-.01,.02-.01,.03,0,.01,0,.03,0,.04,0,.01,0,.02,.01,.03,0,0,.01,.02,.02,.02,.02,.01,.04,.02,.06,.01,.02,0,.04-.02,.06-.04,.02-.03,.04-.07,.05-.11,0-.04,.01-.08,.02-.11v-.12m.45,.2c0-.08,0-.17,0-.25,0-.08,0-.17,.02-.25,0-.08,.03-.16,.05-.24,.02-.08,.05-.15,.09-.21,.01-.02,.03-.04,.04-.06,.02-.02,.04-.03,.06-.04,.01,0,.03-.01,.05-.01,.02,0,.03,0,.05,.01,.01,.01,.02,.03,.03,.04,0,.02,.01,.04,.01,.06,0,.03,0,.06,0,.1,0,.03,0,.07,0,.1-.01,.06-.02,.12-.03,.18v.17c-.02,.12-.03,.23-.03,.35,0,.04,0,.07,0,.11,0,.03-.02,.06-.03,.09-.02,.04-.05,.07-.09,.08-.03,0-.06,0-.09-.02-.03-.02-.05-.05-.07-.09-.02-.04-.03-.08-.03-.12Zm.47-1.47s0,.06-.01,.09c-.01,.03-.03,.06-.05,.09-.02,.02-.05,.04-.07,.05-.02,.01-.05,.01-.08,0-.03,0-.05-.03-.07-.05-.02-.03-.03-.06-.03-.1,0-.04,0-.08,.02-.11,.01-.03,.03-.06,.06-.08,.02-.02,.05-.03,.07-.04,.02,0,.05,0,.07,0,.02,0,.04,.02,.06,.05,.02,.02,.03,.05,.03,.08Zm.09,.77s-.03,.01-.04,.02c-.01,0-.03,0-.04,0,0,0-.02-.01-.02-.02,0-.01,0-.02,0-.03,0-.04,.01-.07,.03-.1,.03-.05,.06-.09,.1-.12,.03-.03,.07-.06,.1-.07,.03-.01,.06-.01,.08,0,.02,.01,.04,.04,.06,.07,.01,.03,.02,.07,.02,.11v.27s0,.03,0,.05l.03-.05,.07-.13s.05-.09,.07-.13c.02-.04,.05-.08,.08-.11,.03-.03,.06-.06,.1-.08,.08-.04,.15-.02,.2,.07,.02,.04,.03,.08,.04,.12,0,.04,.01,.09,.01,.13,0,.2-.02,.4-.06,.59,0,.03-.01,.06-.02,.09-.01,.03-.03,.05-.04,.07-.02,.03-.04,.04-.07,.05-.02,0-.05,.01-.07,0-.02,0-.04-.01-.06-.03,0,0-.01-.02-.02-.03,0-.01,0-.02,0-.03-.01-.04-.02-.08-.01-.13,0-.13,0-.26,.03-.39l.03-.18s0,0,0,0c0,0,0,0,0,0l-.03,.05s-.02,.03-.03,.05c-.05,.09-.1,.18-.14,.27l-.12,.28-.04,.09s-.03,.05-.05,.08c-.02,.02-.04,.03-.06,.04-.02,0-.04,0-.06,0-.02,0-.03-.02-.05-.04-.01-.02-.02-.05-.03-.08,0-.03,0-.05,0-.08v-.08c0-.1,0-.2,.02-.29l.03-.28m1.89-.2c.02,.18,0,.37-.08,.53-.03,.07-.07,.13-.11,.19-.05,.06-.1,.1-.16,.13-.06,.03-.12,.04-.19,.04-.06,0-.12-.02-.17-.06-.05-.03-.09-.08-.13-.14-.04-.07-.06-.15-.07-.23,0-.08,0-.16,0-.23,.01-.08,.03-.16,.06-.23,.03-.07,.07-.14,.12-.2,.05-.06,.11-.11,.18-.14,.06-.02,.12-.04,.18-.03,.06,0,.11,.02,.16,.05,.05,.03,.09,.07,.12,.12,.03,.06,.06,.13,.06,.2Zm-.43-.16s-.02,.02-.03,.03c0,.01-.02,.03-.02,.04-.02,.03-.03,.06-.05,.1-.01,.04-.02,.08-.03,.11,0,.04-.02,.08-.02,.12v.11c-.01,.05-.01,.11,0,.16,0,.05,.02,.09,.03,.14,0,.01,.01,.03,.02,.04,0,.01,.02,.02,.03,.02,.02,0,.05-.02,.08-.07,.03-.04,.04-.09,.06-.14,.02-.07,.04-.13,.05-.2,.01-.07,.02-.14,.03-.22,0-.06,0-.12,0-.18,0-.02,0-.04-.02-.05,0-.02-.02-.03-.03-.04-.02-.02-.05,0-.1,.03"/>
  <path class="ay" d="M9.39,9.42c-.01-.16,0-.32,.03-.47,.03-.15,.08-.29,.15-.42,.07-.13,.16-.24,.26-.33,.1-.09,.22-.16,.34-.19,.06-.02,.12-.02,.18-.01,.06,0,.11,.03,.16,.07,.05,.04,.09,.09,.11,.15,.03,.07,.03,.16,.02,.23-.01,.09-.04,.18-.1,.25-.06,.07-.13,.12-.2,.16-.06,.03-.12,.03-.17,.01-.02,0-.04-.01-.05-.03-.01-.02-.02-.04-.03-.06,0,0,0-.02,0-.02,0,0,0-.01,.01-.02,0,0,0,0,.02,0,0,0,.01,0,.02,0,.01,.01,.02,.02,.04,.02,.01,0,.03,0,.04,0,.02,0,.04,0,.07-.01,.02,0,.04-.02,.06-.03,.03-.02,.05-.05,.07-.08,.02-.03,.03-.07,.03-.1,0-.03,0-.07,0-.11,0-.04-.02-.07-.04-.1-.02-.03-.05-.05-.08-.06-.04,0-.07,0-.11,0-.03,.01-.06,.03-.08,.05-.03,.02-.05,.04-.07,.06-.1,.1-.18,.23-.23,.37-.05,.13-.09,.28-.1,.43,0,.07-.01,.14,0,.2,0,.07,.01,.14,.03,.2v.03s.02,.03,.02,.03c.02,.04,.04,.08,.07,.11,.03,.03,.06,.04,.1,.05,.03,0,.07,0,.11,0,.04,0,.07-.03,.11-.05,.04-.03,.08-.06,.11-.1,.03-.03,.06-.07,.09-.11l.07-.11,.08-.11s.02-.02,.02-.02c.02-.01,.03,0,.03,.02v.03s0,.02,0,.03c-.02,.09-.06,.17-.1,.24-.04,.08-.09,.16-.15,.22-.06,.06-.12,.12-.19,.16-.06,.04-.13,.06-.2,.06-.07,0-.13-.01-.2-.05-.06-.03-.12-.08-.16-.14-.04-.06-.08-.13-.11-.2-.03-.08-.04-.16-.05-.25Zm1.79,.13c-.03,.05-.07,.1-.12,.13-.05,.03-.1,.05-.15,.04-.06,0-.11-.03-.16-.08-.04-.05-.08-.11-.1-.18-.02-.08-.03-.17-.03-.26,0-.09,.03-.17,.06-.25,.02-.05,.05-.1,.08-.14,.03-.05,.07-.09,.1-.12,.04-.03,.08-.06,.12-.08,.04-.02,.09-.03,.13-.04,.03,0,.07,0,.1,.02,.03,.02,.06,.05,.09,.09,.01-.02,.02-.04,.04-.07l.03-.05s.02-.03,.03-.04c.01-.01,.03-.02,.05-.02,.02,0,.03,0,.05,.02,.02,.01,.03,.03,.03,.05,0,.02,0,.04,0,.06v.06s-.02,.06-.02,.06l-.05,.27c-.01,.09-.02,.18-.03,.27v.13c0,.06-.01,.11-.01,.17,0,.01,0,.02,0,.03,0,.02-.01,.04-.03,.06-.01,.01-.03,.02-.05,.02-.02,0-.03,0-.05,0-.02,0-.04-.02-.05-.04-.01-.02-.03-.04-.04-.06l-.04-.07Zm-.04-.23s.01-.02,.02-.04v-.05s.04-.2,.04-.2c.01-.07,.03-.13,.05-.19v-.03s0-.01,0-.02c0,0,0,0,0-.01-.04,0-.08,.02-.11,.05-.03,.02-.06,.05-.09,.09-.03,.04-.05,.07-.07,.12-.02,.04-.03,.08-.04,.13-.02,.06-.02,.12,0,.18,0,.02,0,.04,.02,.05,0,.02,.02,.03,.03,.04,.01,0,.03,.01,.04,.01s.03,0,.04-.01c.04-.03,.07-.07,.08-.12m.77-.23l-.06-.22c-.02-.05-.03-.11-.03-.17,0-.06,0-.11,.02-.17,.01-.05,.03-.1,.06-.14,.03-.04,.06-.07,.1-.1,.04-.02,.08-.04,.13-.04,.05,0,.09,0,.13,.03,.01,0,.02,.02,.03,.04,0,.02,0,.03,0,.05h0s-.06,.05-.09,.08c-.02,.03-.03,.06-.04,.09,0,.03,0,.07,0,.1,0,.03,0,.07,.02,.1l.04,.14s.02,.1,.02,.14c.01,.11,0,.23-.04,.33-.04,.1-.1,.19-.18,.26-.04,.04-.09,.06-.14,.07-.05,0-.1,0-.15-.01-.05-.02-.09-.05-.12-.09-.02-.02-.03-.05-.04-.08,0-.03-.01-.06,0-.09,0-.06,.02-.11,.05-.16,.03-.05,.07-.08,.12-.09,0,0,.02,0,.02,0,0,0,.02,0,.02,0,0,0,.02,0,.02,0,0,0,.01,0,.02,.02,0,0,0,0,0,.01s0,0,0,.01c0,0,0,.01-.01,.02,0,0,0,.01-.01,.02,0,0,0,0-.01,.01l-.03,.05s-.02,.03-.02,.05c0,.01-.01,.02-.01,.03,0,.01,0,.03,0,.04,0,.01,0,.02,.01,.03,0,0,.01,.02,.02,.02,.02,.01,.04,.02,.06,.01,.02,0,.04-.02,.06-.04,.02-.03,.04-.06,.05-.1,0-.04,.01-.08,.02-.11v-.12m.45,.2c0-.08,0-.17,0-.25,0-.08,0-.17,.02-.25,.01-.08,.03-.16,.05-.24,.02-.08,.05-.15,.09-.21,.01-.02,.02-.04,.04-.06,.02-.02,.03-.03,.06-.04,.01,0,.03-.01,.05-.01,.02,0,.03,0,.05,.02,.01,.01,.02,.02,.03,.04,0,.02,.01,.04,.01,.05,0,.03,0,.07,0,.1,0,.03,0,.07-.01,.1-.01,.06-.02,.12-.03,.18v.17c-.02,.12-.03,.23-.03,.35,0,.04,0,.07,0,.11,0,.03-.02,.06-.03,.09-.02,.04-.05,.07-.09,.08-.03,0-.06,0-.09-.02-.03-.02-.05-.05-.07-.09-.02-.04-.03-.08-.03-.12Zm.47-1.47s0,.07-.01,.1c-.01,.03-.03,.06-.05,.09-.02,.02-.05,.04-.07,.05-.02,.01-.05,.02-.08,0-.03,0-.05-.03-.07-.05-.02-.03-.03-.06-.03-.1,0-.04,0-.08,.02-.11,.01-.03,.03-.05,.06-.07,.02-.02,.05-.03,.07-.04,.02,0,.05,0,.07,0,.02,0,.04,.02,.06,.04,.02,.02,.03,.05,.03,.08m.09,.77s-.03,.01-.04,.02c-.01,0-.03,0-.04,0,0,0-.02-.01-.02-.02,0-.01,0-.02,0-.03,0-.04,.01-.07,.03-.1,.03-.05,.06-.09,.1-.12,.03-.03,.07-.06,.1-.07,.03-.01,.06-.01,.08,0,.02,.01,.04,.04,.06,.07,.01,.03,.02,.07,.02,.11v.26s0,.03,0,.05l.03-.05,.07-.13s.05-.09,.07-.13c.02-.04,.05-.08,.08-.11,.03-.03,.06-.06,.1-.08,.08-.04,.15-.02,.2,.07,.02,.04,.03,.08,.04,.12,0,.04,.01,.09,.01,.13,0,.2-.02,.4-.06,.59,0,.03-.01,.06-.02,.09-.01,.03-.03,.05-.04,.07-.02,.03-.04,.04-.07,.05-.02,0-.05,.01-.07,0-.02,0-.04-.01-.06-.03,0,0-.01-.02-.02-.03,0-.01,0-.02,0-.03-.01-.04-.02-.08-.01-.13v-.19s.03-.2,.03-.2l.03-.18s0,0,0,0c0,0,0,0,0,0l-.03,.05s-.02,.03-.03,.05c-.05,.09-.1,.18-.14,.27l-.12,.28-.04,.09s-.03,.05-.05,.08c-.02,.02-.04,.04-.06,.05-.02,0-.04,0-.06,0-.02,0-.03-.02-.05-.03-.01-.02-.02-.05-.03-.08,0-.03,0-.05,0-.08v-.08c0-.1,.01-.2,.02-.29l.03-.28Zm1.89-.2c.02,.18,0,.37-.08,.53-.03,.07-.07,.13-.11,.19-.05,.05-.1,.1-.16,.13-.06,.03-.12,.04-.19,.04-.06,0-.12-.02-.17-.06-.05-.03-.09-.08-.13-.14-.04-.07-.06-.15-.07-.23,0-.08,0-.16,0-.23,.01-.08,.03-.16,.07-.23,.03-.07,.07-.14,.12-.2,.05-.06,.11-.11,.18-.14,.06-.02,.12-.04,.18-.03,.06,0,.11,.02,.16,.05,.05,.03,.09,.07,.12,.12,.03,.06,.06,.13,.07,.2Zm-.43-.16s-.02,.02-.03,.03c0,.01-.02,.03-.02,.04-.02,.03-.03,.06-.05,.1-.01,.04-.02,.08-.03,.11,0,.04-.02,.08-.02,.12,0,.04,0,.07,0,.11,0,.05,0,.11,0,.16,0,.05,.02,.09,.03,.13,0,.01,.01,.03,.02,.04,0,.01,.02,.02,.03,.02,.02,0,.05-.02,.08-.07,.03-.04,.04-.09,.06-.14,.02-.07,.04-.13,.05-.2,.01-.07,.02-.14,.03-.21,0-.06,0-.12,0-.18,0-.02,0-.04-.01-.06,0-.02-.02-.03-.03-.04-.02-.02-.05,0-.1,.03"/>
  <path class="ba" d="M6.16,8.45s.08,.09,.11,.14v.02s.01-.06,.02-.08c0-.03,.02-.05,.04-.07h0s-.26-.38-.26-.38c.01,.07,.02,.15,.01,.22,0,.1,0,.09,.06,.14Z"/>
  <path class="bb" d="M5.71,7.68c.04,.05,.11,.06,.16,.1l.02,.02-.08-.11s-.05-.05-.08-.06-.07,0-.09,.02c.03,0,.05,.02,.07,.04Zm.08,.39c-.08-.07-.18-.09-.25-.18,0,0-.01-.01-.01-.02,0,.03,.02,.07,.03,.09l.3,.44c0-.13,.04-.24-.06-.33Zm.4,.89s-.02-.02-.03-.04c0,.05,.01,.1,.04,.14l.03,.05s.03,.03,.05,.04c.02,.01,.04,.02,.06,.02,.02,0,.04,0,.06,0,.02,0,.04-.02,.05-.04l.04-.05s.03-.05,.04-.08c0-.03,.01-.07,0-.1-.09,.11-.23,.18-.34,.06m.41-1.47s.04-.26,.13-.22c.09,.04,.2,.11,.09,.28-.08,.12-.22,.05-.22-.06Z"/>
  <path class="bb" d="M6.72,8h0s0-.02,0-.02c-.06-.1-.04-.25,.03-.33,.03-.04,.06-.07,.1-.08-.04-.06-.13-.09-.2-.11-.13-.05,0,.44,0,.44,.02,.09,.04,.13,.07,.11Z"/>
  <path class="ba" d="M6.9,8.36c-.04,.05-.09,.1-.13,.15-.01,.02-.03,.04-.04,.05-.05,.05-.05,.07-.09,.13,0,.02-.01,.03-.02,.05-.07,.17-.24,.35-.38,.25,.01,.02,.03,.04,.05,.05l.09,.05s.06,.02,.09,0c.03-.01,.06-.04,.07-.08l.5-.85s0-.03,0-.05c-.04,.09-.1,.17-.16,.24"/>
  <path class="bb" d="M6.7,8.01l.02-.03h0c-.06-.11-.03-.26,.03-.35,.07-.1,.19-.11,.29-.15,.06-.02,.12-.05,.18-.04-.15-.16-.31-.26-.37-.14-.07,.15-.28,.61-.15,.7"/>
  <path class="ba" d="M7.22,7.96s-.08,.03-.12,.05c-.02,.07-.05,.13-.08,.19,0,0,.02,0,.03,0,0,0,.02,0,.03-.01,0,0,.16-.16,.25-.32-.03,.04-.06,.08-.1,.1"/>
  <path class="aj" d="M5.31,10.05s.69-.19,1.22,.03c.53,.22,.55,.55,.74,0,.19-.55,.19-1.04,.03-1.06-.16-.02-.33,.11-.38,.74-.6-.25-1.29-.23-1.58-.12,0,0-.49,.27-.02,.42"/>
  <path class="bh" d="M5.3,10.01s.69-.19,1.22,.03c.53,.22,.55,.55,.74,0,.19-.55,.18-1.04,.03-1.06-.16-.02-.33,.11-.38,.74-.6-.25-1.29-.23-1.59-.12,0,0-.49,.26-.02,.42Z"/>
  <path class="ba" d="M7.27,9.71c-.06,.23-.07,.41-.21,.59l-.04,.03c.09,.03,.14-.02,.23-.29,.15-.47,.18-.88,.09-1.02-.21-.23-.02,.5-.07,.69m-1.48-.18c-.23-.01-.33,.02-.47,.07,0,0-.49,.26-.02,.42,0,0,.05-.02,.34-.06,.26-.02-.1-.26,.15-.43Zm.74,.22c-.02-.06-.04-.11-.07-.17-.16-.03-.08,0-.09,.17-.01,.18-.2,.07-.03,.14,.1,.04,.19-.08,.2-.14Z"/>
  <path class="ay" d="M6.33,6.37c0-.11,0-.23,.01-.34,.01-.14,.03-.28,.05-.41,.03-.15,.06-.29,.11-.43,.04-.13,.1-.26,.17-.38,.07-.11,.15-.2,.25-.27,.1-.07,.22-.11,.34-.11,.12,0,.22,.03,.3,.1,.08,.07,.14,.16,.19,.27,.05,.12,.08,.24,.09,.38,.02,.13,.02,.27,.02,.4v.15s0,.04-.02,.06c-.01,.02-.03,.03-.04,.03l-.37,.08s-.02,0-.03,0c-.01,0-.02,0-.03-.02,0,0-.01-.02-.02-.03,0-.01,0-.02,0-.04v-.02c0-.05,0-.1,0-.16,0-.04-.02-.09-.03-.13,0-.02-.02-.03-.04-.04-.01,0-.03-.01-.05-.01-.04,0-.08,.03-.12,.1-.04,.07-.06,.15-.08,.23-.02,.09-.04,.17-.05,.26-.01,.06-.02,.13-.02,.2v.44c0,.06,.01,.12,.02,.18,0,.05,.02,.1,.04,.14,0,.02,.01,.03,.03,.04,.01,.01,.03,.02,.04,.02,.04,0,.07-.03,.08-.09,.01-.07,.02-.14,.02-.22v-.11s0-.02,0-.04c0-.01,0-.02,.02-.03,0,0,.01-.02,.02-.02s.02,0,.03,0h.2s.16,.02,.16,.02c.03,0,.06,.01,.1,.02,.01,0,.03,.02,.04,.03,0,.02,.01,.03,.02,.05,0,.12,0,.24-.02,.35-.02,.14-.06,.28-.11,.41-.05,.12-.13,.23-.21,.32-.09,.09-.2,.13-.32,.13-.16,0-.29-.04-.39-.13-.1-.09-.18-.21-.23-.35-.06-.16-.1-.32-.12-.5-.02-.19-.03-.37-.03-.56m2.3,1.53c-.09-.01-.17-.05-.23-.12-.07-.07-.13-.15-.18-.25-.06-.11-.1-.22-.13-.34-.04-.12-.07-.25-.09-.38-.02-.12-.04-.24-.06-.37-.01-.12-.02-.22-.03-.31,0-.03,0-.06,0-.09v-.1c0-.18,.01-.36,.04-.53,.02-.18,.07-.35,.13-.52,.06-.15,.14-.28,.25-.37,.11-.09,.24-.12,.4-.09,.16,.03,.29,.12,.39,.25,.1,.13,.18,.29,.23,.46,.05,.18,.09,.37,.1,.56,.01,.18,.02,.36,.02,.54,0,.1-.01,.21-.02,.34-.01,.13-.03,.25-.06,.38-.02,.13-.06,.25-.1,.37-.04,.11-.09,.21-.15,.31-.06,.09-.13,.15-.21,.2-.09,.05-.19,.06-.28,.05m0-2.34s-.03,.01-.04,.02c-.01,.01-.02,.02-.02,.04-.02,.04-.03,.09-.04,.14-.01,.06-.02,.13-.02,.2,0,.07,0,.15,0,.22,0,.08,0,.16,0,.24,0,.07,.01,.14,.02,.21,0,.05,.03,.1,.05,.14,0,.01,.01,.03,.03,.03,.01,0,.02,.01,.04,.01,.01,0,.02-.01,.03-.02,.01-.01,.02-.02,.02-.04,.02-.05,.03-.09,.04-.14,.01-.07,.02-.14,.03-.2,0-.08,0-.15,0-.23,0-.08,0-.16,0-.23,0-.07-.01-.13-.03-.2,0-.05-.02-.1-.05-.14,0-.02-.02-.03-.03-.04-.01,0-.03-.01-.04,0m1.59,2.34c-.09,0-.17-.05-.24-.11-.07-.07-.13-.16-.18-.25-.06-.11-.1-.22-.13-.34-.04-.12-.07-.25-.09-.38-.02-.12-.04-.24-.06-.37-.01-.12-.02-.22-.03-.31,0-.03,0-.06,0-.09v-.1c0-.18,.01-.36,.04-.53,.02-.18,.07-.35,.13-.52,.06-.15,.14-.28,.25-.37,.1-.09,.24-.12,.4-.09,.16,.03,.29,.12,.39,.25,.1,.13,.17,.29,.22,.46,.05,.18,.09,.37,.1,.56,.01,.18,.02,.36,.02,.54,0,.1-.01,.21-.02,.34-.01,.13-.03,.25-.05,.38-.02,.12-.06,.25-.1,.37-.04,.11-.09,.22-.15,.31-.06,.08-.13,.15-.21,.2-.09,.05-.19,.07-.28,.05m0-2.35s-.03,.01-.04,.02c-.01,.01-.02,.02-.02,.04-.02,.04-.03,.09-.04,.14-.01,.06-.02,.13-.02,.2,0,.07,0,.15,0,.22,0,.08,0,.16,0,.24,0,.07,.01,.14,.02,.21,0,.05,.03,.1,.05,.14,0,.01,.01,.03,.03,.03,.01,0,.02,.01,.04,.01,.01,0,.02-.01,.03-.02,.01-.01,.02-.02,.02-.04,.02-.05,.03-.09,.04-.14,.01-.07,.02-.14,.03-.2,0-.08,0-.15,0-.23,0-.08,0-.16,0-.23,0-.07-.01-.13-.03-.2,0-.05-.02-.1-.05-.14,0-.01-.02-.03-.03-.03-.01,0-.02-.01-.04-.01Zm1.01,2.37s0,0-.01,0c0,0,0,0,0-.02,0-.12-.02-.28-.02-.47-.01-.2-.02-.42-.03-.65l-.02-.71-.02-.68-.02-.54c0-.13,0-.23-.01-.29,0,0,0,0,0,0,0,0,0,0,0,0s0,0,0,0c0,0,0,0,0,0,.09-.02,.19-.03,.28-.04,.1-.01,.21-.03,.33-.04,0,0,0,0,0,0s0,0,0,0c0,0,0,0,0,0,0,0,0,0,0,.01,0,.12,0,.24,0,.36v.4s0,.12,0,.12c0,0,0,0,0,.01,0,0,0,0,.01,0,0,0,0,0,.01,0,0,0,0,0,0-.01,.02-.05,.03-.1,.05-.16,.03-.1,.06-.21,.09-.32l.08-.29,.04-.17s0,0,0-.01c0,0,0,0,.01,0,.04,0,.09,0,.13,.01l.17,.04,.17,.05,.13,.04s0,0,0,0c0,0,0,0,0,0,0,0,0,0,0,.01s0,0,0,.01c-.09,.23-.16,.44-.23,.64l-.19,.53-.12,.36c-.02,.07-.04,.11-.04,.13,0,0,0,.01,0,.02,.02,.07,.05,.14,.09,.2,.05,.09,.11,.18,.18,.28l.2,.3c.07,.09,.12,.05,.16,.12,0,.05,0,.1,0,.15-.03,.05-.06,.09-.1,.14-.04,.06-.09,.11-.13,.17l-.14,.15s-.08,.07-.12,.1c0,0,0,0,0,0,0,0,0,0,0,0-.04-.04-.07-.08-.1-.14-.04-.07-.08-.15-.12-.23-.04-.08-.08-.16-.11-.23l-.04-.08s0,0,0-.01c0,0,0,0-.01,0,0,0,0,0-.01,.01,0,0,0,.01,0,.02v.05s.02,.2,.02,.2l.02,.22c0,.06,0,.13,0,.18,0,0,0,.01,0,.02,0,0,0,0-.01,0h-.12s-.16,.03-.16,.03l-.16,.02s-.09,0-.13,0m2.26-2.98c0,.15-.03,.26-.1,.34-.03,.04-.07,.07-.11,.09-.04,.02-.09,.03-.13,.03-.05,0-.11-.01-.16-.04-.05-.03-.1-.06-.14-.11-.04-.05-.07-.11-.09-.17-.02-.07-.03-.14-.03-.21,0-.14,.04-.25,.11-.32,.07-.07,.16-.11,.25-.11,.05,0,.09,.01,.14,.03,.05,.02,.09,.05,.13,.09,.04,.04,.07,.09,.09,.15,.02,.07,.04,.15,.03,.22Zm.07,2.82s0,.05-.02,.07c-.01,.02-.03,.03-.05,.03h-.06c-.06,.01-.12,.01-.18,.01h-.15s-.03,0-.03,0c-.02,0-.04,0-.05-.03-.01-.02-.02-.04-.03-.06-.04-.45-.08-.83-.12-1.12l-.08-.72c-.02-.17-.03-.29-.03-.35,0-.06,0-.08,0-.07,.04,0,.08-.02,.11-.02h.17s.16,0,.16,0h.15s.13,.02,.13,.02c.02,0,.04,.01,.05,.03,.01,.02,.02,.04,.02,.07v.49s0,.56,0,.56v1.09m.08,0s-.01,0-.02,0c0,0-.01,0-.01-.01,0,0,0-.01,0-.02,0,0,0-.01,0-.02v-.1c0-.18,.01-.35,.03-.53,0-.01,0-.02,.01-.03,0,0,.01-.02,.02-.02,0,0,.02,0,.02,0,.01,0,.02,0,.03,0,0,0,.02,0,.02-.02,0,0,.01-.02,.01-.03,0-.09,.02-.21,.02-.35l.02-.5,.02-.49,.02-.33s0-.03,0-.04c0-.01-.02-.02-.03-.02-.02,0-.03,0-.05,0-.01,0-.02,0-.03,0-.01,0-.02,0-.03-.02,0,0-.01-.02-.01-.03,0-.11,0-.21,.01-.32,.01-.14,.02-.28,.03-.41h.07c.47,0,.93,.04,1.39,.11,0,0,0,.01,0,.04v.05l-.03,.69s0,.03-.01,.04c0,0-.02,.01-.03,.02h-.09s-.19-.04-.19-.04l-.28-.04s-.01,0-.02,0c0,0-.01,0-.02,.01,0,0,0,.01-.01,.02,0,0,0,.01,0,.02,0,.02,0,.03,0,.05,0,.03,0,.06,0,.1,0,.01,0,.03,0,.04,0,.01,.02,.02,.03,.02,.02,0,.04,0,.07,0h.12s.11,0,.11,0c.02,0,.05,0,.07,.01,0,0,.02,0,.02,.02,0,0,.01,.02,.01,.03,0,.04,0,.09,0,.14,0,.17-.02,.34-.03,.5v.12s0,.02-.01,.02c0,0,0,.01-.01,.02,0,0,0,0-.02,.01,0,0-.01,0-.02,0h-.04c-.08-.02-.17-.04-.25-.05-.03,0-.05,0-.08,0-.01,0-.02,0-.03,.01,0,0-.01,.02-.01,.04l-.03,.53s0,.02,0,.02c0,0,0,.01,0,.02,0,0,0,.01,.02,.01,0,0,.01,0,.02,0,.07,0,.14,0,.22,0,.09,0,.16,.02,.23,.03,.01,0,.02,0,.03,.02s.01,.02,.01,.04v.14c0,.18-.01,.37-.03,.55,0,.02,0,.05-.02,.05l-.24-.03-.44-.04c-.17-.02-.36-.03-.57-.05"/>
  <path class="ag" d="M6.32,6.3c0-.11,0-.23,.01-.34,.01-.14,.03-.28,.05-.41,.03-.15,.06-.29,.11-.43,.04-.13,.1-.26,.17-.38,.07-.11,.15-.2,.25-.27,.1-.07,.22-.11,.34-.11,.12,0,.22,.03,.3,.1,.08,.07,.14,.17,.19,.28,.05,.12,.08,.24,.09,.37,.02,.13,.02,.27,.02,.41v.15s0,.04-.02,.05c-.01,.02-.02,.03-.04,.03l-.38,.09s-.02,0-.03,0c-.01,0-.02,0-.03-.02,0,0-.01-.02-.02-.03,0-.01,0-.03,0-.04v-.02c0-.05,0-.1,0-.15,0-.04-.01-.09-.03-.13,0-.02-.02-.03-.04-.04-.01,0-.03-.01-.05-.01-.04,0-.08,.03-.12,.1-.04,.07-.06,.15-.08,.23-.02,.09-.04,.17-.05,.26-.01,.07-.02,.13-.02,.2v.43c0,.06,.01,.12,.02,.19,0,.05,.02,.09,.04,.14,0,.02,.01,.03,.03,.04s.03,.02,.04,.02c.04,0,.07-.03,.08-.09,.01-.07,.02-.15,.02-.22v-.11s0-.02,0-.04c0-.01,0-.02,.02-.03,0,0,.01-.02,.02-.02,0,0,.02,0,.03,0h.05s.1,0,.16,0l.16,.02s.06,.01,.1,.02c.02,0,.03,.02,.04,.03,.01,.02,.02,.03,.02,.05,0,.12,0,.23-.02,.35-.02,.14-.05,.28-.11,.41-.05,.13-.13,.23-.22,.32-.09,.09-.2,.13-.32,.13-.16,0-.29-.04-.39-.13-.1-.09-.18-.21-.23-.35-.06-.16-.1-.32-.12-.49-.02-.19-.03-.38-.03-.56Zm2.3,1.53c-.09,0-.17-.05-.24-.12-.07-.07-.13-.16-.18-.25-.06-.11-.1-.22-.13-.34-.04-.12-.07-.25-.09-.38-.02-.12-.04-.24-.06-.37-.01-.12-.02-.22-.03-.31,0-.03,0-.06,0-.09v-.1c0-.18,.01-.36,.04-.53,.02-.18,.07-.36,.13-.52,.06-.15,.14-.28,.25-.37,.1-.09,.24-.12,.4-.09,.16,.03,.29,.12,.39,.25,.1,.14,.17,.29,.22,.47,.05,.18,.09,.37,.1,.56,.01,.18,.02,.36,.02,.54,0,.1-.01,.21-.02,.34-.01,.13-.03,.25-.05,.38-.02,.12-.06,.25-.1,.37-.04,.11-.09,.22-.15,.31-.06,.09-.13,.15-.21,.2-.09,.05-.19,.06-.28,.05m0-2.35s-.03,.01-.04,.02-.02,.02-.02,.04c-.02,.04-.03,.09-.04,.14-.01,.06-.02,.13-.02,.2,0,.07,0,.15,0,.22,0,.08,0,.16,0,.24,0,.07,.01,.14,.03,.21,0,.05,.03,.09,.05,.14,0,.01,.01,.03,.03,.04,.01,0,.02,.01,.04,.01,.01,0,.02-.01,.03-.02,.01-.01,.02-.02,.02-.04,.02-.05,.04-.1,.05-.15,.01-.07,.02-.13,.02-.2,0-.08,0-.15,0-.23,0-.08,0-.16,0-.23,0-.07-.02-.14-.03-.2,0-.05-.02-.1-.05-.14,0-.01-.02-.03-.03-.03-.01,0-.02-.01-.04,0m1.58,2.34c-.09,0-.17-.05-.23-.12-.07-.07-.13-.16-.18-.25-.05-.11-.1-.22-.13-.34-.04-.12-.07-.25-.09-.38-.02-.12-.04-.24-.06-.37-.01-.12-.02-.22-.03-.31,0-.03,0-.06,0-.09v-.1c0-.18,.01-.36,.04-.53,.02-.18,.07-.36,.13-.52,.06-.15,.14-.27,.25-.37,.11-.09,.24-.12,.4-.09,.16,.03,.29,.12,.39,.25,.1,.14,.18,.29,.23,.47,.05,.18,.09,.37,.1,.56,.01,.18,.02,.36,.02,.54,0,.1,0,.21-.02,.34-.01,.13-.03,.25-.06,.38-.02,.12-.06,.25-.1,.37-.03,.11-.08,.22-.14,.31-.06,.09-.13,.15-.21,.2-.09,.05-.19,.06-.28,.05m0-2.35s-.02,.01-.03,.02c-.01,.01-.02,.02-.02,.04-.02,.04-.03,.09-.04,.14-.01,.06-.02,.13-.02,.2,0,.07,0,.15,0,.22,0,.08,0,.16,0,.24,0,.07,.01,.14,.03,.21,0,.05,.03,.1,.05,.14,0,.01,.01,.03,.03,.04s.02,.01,.04,.01c.01,0,.02-.01,.03-.02,.01-.01,.02-.02,.02-.04,.02-.05,.03-.09,.04-.14,.01-.07,.02-.14,.02-.2,0-.08,.01-.15,.01-.23,0-.08,0-.16,0-.23,0-.07-.01-.14-.03-.2-.01-.05-.03-.1-.05-.14,0-.01-.02-.03-.03-.03-.01,0-.02-.01-.04,0Zm1.01,2.37s0,0-.01,0c0,0,0,0,0-.01l-.03-.47c-.01-.2-.02-.42-.03-.65,0-.24-.02-.47-.02-.71l-.02-.68c0-.21-.01-.39-.02-.54,0-.13-.01-.23-.02-.29,0,0,0,0,0,0,0,0,0,0,0,0,0,0,0,0,0,0,0,0,0,0,0,0,.09-.02,.19-.03,.28-.04s.21-.03,.33-.04c0,0,0,0,0,0,0,0,0,0,0,0,0,0,0,0,0,0,0,0,0,0,0,0,0,.12,0,.24,0,.36,0,.14,0,.27,0,.4v.12s0,.01,0,.02,0,0,.01,0c0,0,.01,0,.01,0,0,0,0,0,0-.02,.02-.04,.03-.1,.05-.16,.03-.1,.06-.21,.09-.32l.08-.29,.05-.17s0,0,0-.01c0,0,0,0,.01,0,.05,0,.09,0,.13,.02,.05,0,.11,.02,.17,.04,.06,.02,.11,.03,.17,.04l.13,.04s0,0,0,0c0,0,0,0,0,0s0,0,0,0c0,0,0,0,0,0-.09,.23-.17,.45-.24,.65l-.19,.53-.12,.36s-.03,.09-.04,.13c0,0,0,.01,0,.02,.02,.07,.05,.14,.09,.2,.05,.09,.11,.18,.18,.28l.2,.3c.06,.09,.12,.17,.16,.24,0,0,0,0,0,.02s0,.01,0,.02c-.03,.04-.06,.09-.1,.14-.04,.06-.09,.11-.13,.17-.05,.05-.09,.11-.14,.15-.04,.04-.08,.07-.12,.1,0,0,0,0,0,0,0,0,0,0,0,0-.04-.04-.07-.08-.1-.14-.04-.07-.08-.15-.12-.23l-.11-.23-.04-.08s0,0,0-.01c0,0,0,0-.01,0,0,0,0,0-.01,0,0,0,0,0,0,.01v.05s.02,.2,.02,.2l.02,.22v.19s0,0,0,0c0,0,0,0,0,0,0,0,0,0,0,0,0,0,0,0,0,0-.15,0-.29,.02-.44,.05-.05,0-.09,0-.14,0m2.26-2.99c0,.15-.03,.26-.1,.34-.03,.04-.07,.07-.11,.09-.04,.02-.09,.03-.13,.03-.05,0-.11-.01-.16-.04-.05-.03-.1-.06-.13-.11-.04-.05-.07-.11-.09-.17-.02-.06-.03-.13-.03-.2,0-.14,.04-.25,.11-.32,.07-.07,.16-.11,.25-.11,.05,0,.09,.01,.14,.03,.05,.02,.09,.05,.13,.09,.04,.04,.07,.1,.09,.16,.02,.07,.03,.14,.03,.22m.07,2.81s0,.05-.02,.07c-.01,.02-.03,.03-.05,.03h-.05s-.18,0-.18,0h-.18s-.04,0-.05-.03c-.01-.02-.02-.04-.03-.06l-.12-1.12-.08-.72-.03-.35c0-.06,0-.08,0-.07,.04-.01,.08-.02,.11-.02h.17s.16,0,.16,0h.15s.13,.02,.13,.02c.02,0,.04,.01,.05,.03,.01,.02,.02,.04,.02,.07v.49s0,.56,0,.56v.57s0,.52,0,.52m.09,.01s-.01,0-.02,0c0,0-.01,0-.01-.01,0,0,0-.01,0-.02,0,0,0-.01,0-.02v-.31c.01-.11,.02-.21,.03-.32,0-.01,0-.02,.01-.03,0,0,.01-.02,.02-.02,0,0,.02,0,.02,0,.01,0,.02,0,.03,0,0,0,.02,0,.02-.02s0-.02,0-.03c0-.09,.02-.21,.02-.35,0-.16,.02-.33,.02-.5l.02-.49c0-.13,.01-.24,.02-.33,0-.01,0-.03,0-.04,0-.01-.02-.02-.03-.02-.02,0-.03,0-.05,0-.01,0-.02,0-.03,0-.01,0-.02,0-.03-.02,0-.01-.01-.03-.01-.04,0-.11,0-.21,.01-.32,.01-.14,.02-.28,.03-.41h.07c.07,0,.18,0,.31,0,.14,0,.3,.02,.49,.03,.19,.02,.38,.04,.59,.08,0,0,0,.02,0,.04v.05l-.03,.69s0,.03-.01,.04c0,.01-.02,.02-.03,.02h-.09s-.18-.04-.18-.04l-.28-.03s-.02,0-.03,.01c0,0-.01,.02-.02,.04v.05s-.01,.06,0,.1c0,.01,0,.03,.01,.04,0,0,.02,.02,.03,.02,.02,0,.04,0,.07,0,.08,0,.15,0,.23,0,.02,0,.05,0,.07,0,0,0,.02,0,.02,.02,0,0,.01,.02,.01,.03,0,.04,0,.09,0,.14,0,.08,0,.16-.01,.25l-.02,.25v.12s0,.01-.01,.02c0,0,0,.01-.01,.02,0,0,0,0-.02,.01,0,0-.01,0-.02,0h-.04c-.08-.02-.17-.03-.25-.05h-.08s-.01,0-.02,0c0,0-.01,0-.02,.01,0,0,0,.01-.01,.02,0,0,0,.01,0,.02l-.03,.52s0,.02,0,.02,0,.01,0,.02c0,0,0,.01,.01,.01,0,0,.01,0,.02,0,.07,0,.14,0,.22,.01l.23,.02s.02,0,.03,.02c0,0,.01,.02,.01,.04v.14c0,.18-.01,.37-.03,.55,0,.02,0,.05-.02,.05-.23-.03-.45-.05-.68-.07-.17-.02-.36-.03-.57-.05"/>
  <g class="ap">
    <path class="ah" d="M6.32,4.31h1.54v3.47h-1.54v-3.47Z"/>
  </g>
  <g class="bm">
    <path class="ak" d="M7.89,4.31h1.55v3.48h-1.55v-3.48Z"/>
  </g>
  <g class="bo">
    <path class="aw" d="M9.46,4.31h1.55v3.48h-1.55v-3.48Z"/>
  </g>
  <g class="az">
    <path class="bd" d="M11.04,4.28h1.63v3.53h-1.63v-3.53Z"/>
  </g>
  <g class="au">
    <path class="bg" d="M12.71,4.33h.84v3.42h-.84v-3.42Z"/>
  </g>
  <g class="bj">
    <path class="bq" d="M13.57,4.33h1.59v3.44h-1.59v-3.44Z"/>
  </g>
  <path class="ay" d="M7.77,6.55s0-.04-.02-.05c-.01-.02-.02-.03-.04-.03-.03,0-.07-.02-.1-.02-.11-.02-.22-.03-.33-.03h-.05s-.02,0-.03,0c0,0-.02,.01-.03,.02,0,0-.01,.02-.02,.03s0,.02,0,.04v.11s0,.08,0,.12c.09-.07,.19-.13,.3-.17,.05-.02,.09,.07,.06,.11v.02s.26-.12,.26-.12h0v-.05"/>
  <path class="am" d="M7.71,6.47s-.06-.02-.1-.02c-.06-.01-.11-.02-.17-.02h-.16s-.05,0-.05,0c-.01,.02-.02,.04-.03,.06,0,.02,0,.05,0,.07v.03s.03-.03,.05-.04c.03-.03,.07-.05,.12-.05,.04,0,.08,.01,.12,.04,.01,0,.03,.02,.04,.03s.02,.03,.02,.05c.02-.02,.05-.03,.08-.03,.05,0,.1-.02,.13-.05,0-.01-.01-.03-.02-.04,0-.01-.02-.02-.03-.02"/>
  <path class="ay" d="M7.83,5.01c-.01-.12-.05-.24-.09-.35-.04-.1-.11-.19-.19-.26-.08-.07-.17-.14-.29-.14-.13,0-.25,.08-.34,.14-.09,.07-.18,.15-.25,.26-.07,.11-.13,.23-.17,.35-.04,.11-.07,.22-.09,.33,0,0,.01,.03,.02,0,.02-.05,.05-.1,.09-.14s.09-.06,.13-.07c.16-.01,.2,.14,.23,.13,.18-.02,.13-.53,.32-.54,.2-.01,.11,.3,.22,.29,.11-.02,.17-.11,.24-.04,.07,.07,.14,.14,.16,.1,0,0,0,0,0,0,0-.02,0-.04,0-.06m.49,.03c.09-.05,.14-.2,.39-.25,.25-.05,.22,.22,.31,.22,.14,0,.22-.08,.25-.13,.04-.07-.08-.2-.18-.34-.1-.13-.24-.22-.39-.25-.16-.03-.29,0-.4,.09-.11,.09-.19,.22-.25,.37-.06,.16-.15,.44-.03,.32,.25-.27,.19,.02,.3-.04m1.7-.46s.09,.08,.13,.05c.03-.03,.08-.07,.15-.07,.09,0,.13,.12,.14,.16,.09,.18,.09-.08,.25,.08,.03,.03,.07,0,.09-.04-.04-.07-.08-.14-.13-.21-.1-.13-.22-.21-.39-.25-.16-.03-.29,0-.4,.09-.11,.09-.19,.22-.25,.36l.07,.08s.02,.01,.03,.01,.02,0,.03-.02c.07-.09,.22-.3,.27-.24m2.62-.2c-.17-.04-.34-.08-.51-.11-.05,0-.09-.01-.14-.02,0,0-.02,0-.02,0,0,0-.01,.01-.02,.02l-.05,.15c-.02,.07-.04,.14-.06,.21,0,0,0,0,0,.01,0,0,0,0,0,.01,0,0,0,0,0,0,0,0,0,0,0,0h0s.08-.06,.12-.07c.07-.02,.08,.11,.15,.1,.03,0,.13-.16,.17-.14,.01,0,.02,.01,.03,.02,0,0,.02,.02,.02,.04,0,0,0,0,0,0,0,0,0,0,0,0,0,0,0,0,0,0,0,0,0,0,0,0,0,0,0,0,.01-.01h0s.02-.03,.03-.03c.01,0,.02,0,.03,0s.02,.01,.03,.02c0,.01,.01,.02,.01,.04,0,0,0,.01,0,.01,0,0,0,0,.01,0h.03s0,0,0,0,0,0,0,0l.09-.22s0-.01,0-.02c0,0,0-.01,0-.02,0,0,0-.01-.01-.02,0,0,0,0-.01,0Zm-.98-.08l-.32,.05-.27,.04s0,0-.01,0c0,0,0,0-.01,.01,0,0,0,.01,0,.02,0,0,0,.01,0,.02v.22s.02,0,.02,.01,0,0,.01,0h0s0,0,0,0c0,0,0,0,0,0,0,0,0,0,0,0,0,0,0,0,0,0v-.02s0-.02,0-.03c0,0,0-.02,.02-.02,0,0,.01,0,.02-.01,0,0,.02,0,.02,0,.04,0,.07,.01,.11,.01,0,0,0,0,0,0,0,0,0,0,0,0,.02-.02,.03-.03,.06-.04,.07-.03,.11,.11,.17,.08,.04-.02,.02-.06,.05-.06,.08,0,0,.09,.03,.11,0,0,0,0,0,0h.07s0,0,.01,0c0,0,0,0,0-.01v-.31s0-.01,0-.02c0,0,0-.01,0-.02,0,0,0,0-.01,0,0,0-.01,0-.02,0m1.8,1.07h-.13s-.15-.02-.15-.02c-.11,0-.22,0-.33,0-.04,0-.08,0-.11,.02,0-.02-.01,0,0,.07,0,.04,0,.1,.01,.19,.07-.07,.16-.06,.26-.02,.05,.02,.12,.06,.17,.06,.03,0,.06-.02,.08-.05,.03-.03,.06-.05,.1-.07,0,0,.02,0,.03,0,0,0,.02,0,.02,.02,.02,.03,.04,.07,.06,.11h.08v-.22s0-.05-.02-.07c-.01-.02-.03-.03-.05-.03Zm-.05-.69s0,0,.01,.01c0,0,0,0,.01,0h0s0,0,0,0h0s0-.02,0-.01c0,0,0-.01,0-.02,0,0,0-.01,0-.02,0-.02,0-.03-.01-.05-.02-.06-.05-.11-.09-.16-.04-.04-.08-.07-.13-.09-.05-.02-.1-.03-.14-.03-.09,0-.18,.04-.26,.11-.05,.05-.09,.11-.1,.19,0,0,0,.01,0,.02,0,0,0,.01,0,.02,0,0,0,0,.02,0,0,0,.01,0,.01,0,.04-.02,.08-.04,.12-.03,.05,.01,.08,.08,.12,.08,.05,0,.09-.06,.13-.09,.01,0,.02-.01,.03,0,.01,0,.02,0,.03,.02,0,0,0,0,0,0,0,0,0,0,.01,.01,0,0,.01,0,.02,0,.06-.03,.13-.04,.18,.02,0,0,.02,.02,.02,.03m1.75-.27c-.21-.03-.41-.06-.6-.07-.19-.02-.35-.03-.49-.04-.14,0-.25,0-.32,0h-.07l-.03,.41v.07s0,.02,0,.02c0,0,0,.01,0,.02,0,0,0,.01,0,.02,0,0,0,0,.01,0,0,0,0,0,.01,0,0,0,0,0,.01,0,.01-.02,.03-.03,.05-.03,.08-.03,.13,.02,.18,.08,0,0,0,0,.01,0,0,0,0,0,.01,0h0s0,0,.01,0c0,0,0,0,.01-.01,.04-.08,.17-.07,.24-.09,.1-.03,.18-.09,.28-.07,.09,.02,.16,.15,.25,.17,.07,.02,.16-.05,.24-.03l.13,.04s0,0,.01,0c0,0,0,0,.01,0,0,0,0,0,0-.01,0,0,0,0,0-.02l.02-.36v-.06s0-.04,0-.04"/>
  <path class="am" d="M6.73,4.87c.06-.09,.12-.19,.2-.25,.07-.05,.15-.08,.23-.08,.12,0,.24,.03,.35,.08,.07,.03,.15,.06,.23,.06-.04-.11-.11-.2-.19-.27-.08-.08-.18-.13-.29-.14-.13,0-.25,.08-.34,.14-.09,.07-.18,.15-.25,.26-.07,.11-.13,.23-.17,.35l-.04,.13,.05-.04c.08-.07,.16-.15,.22-.24Zm2.06-.25c.06,.01,.12,.03,.18,.05,0,0,.02,0,.02,0h.02s.01-.01,.01-.02c0,0,0-.01,0-.02l.02-.07s0-.02,0-.03c0-.01,0-.02-.01-.03-.1-.11-.22-.18-.35-.2-.16-.03-.29,0-.4,.09-.08,.07-.16,.17-.21,.28,0,.01,0,.02,0,.04,0,.01,0,.02,.02,.03,0,0,.02,.01,.03,0s.02,0,.03-.02c.02-.05,.05-.09,.09-.12,.02-.02,.05-.03,.07-.04,0,0,0,0,0,0,.15-.08,.3-.04,.45,.04,0,0,0,0,0,0m.55,.54v-.05s0-.01,0-.01c0,.02,0,.04,0,.06m.63-.7s.1,.02,.14,.03c.04,0,.06-.02,.1-.03,.05-.01,.09,0,.13,.02,.04,.01,.08,.03,.12,.06,0,0,.01,0,.02,.02h.17c-.1-.13-.23-.21-.38-.23-.16-.03-.29,0-.4,.09-.03,.02-.05,.05-.08,.08,.05-.02,.11-.03,.17-.02m2.05,0c.06,.03,.15-.05,.21-.05,.13,0,.04,.12,.19,.14,.02,0,.09-.08,.09-.08,.07,0,0,.11,.06,.08,0,0,.06-.05,.07-.05,0,0,0,0,0,0s0,0,0,0c.02-.04,.03-.08-.04-.09l-.1-.03c-.13-.03-.25-.06-.38-.08h-.12s-.03,0-.04,0c-.01,0-.02,.02-.02,.03l-.02,.07s0,0,0,.01c0,0,0,0,0,.01l.07,.05m-.97,.12h0s.01,0,.02-.01c0,0,.01-.01,.01-.02,.02-.05,.07-.07,.12-.07h.1s0,0,0,0c.04-.01,.09-.02,.13-.01,.04,0,.07,.03,.1,.05,0,0,.01,0,.02,.01,0,0,.01,0,.02,0,0,0,.02,0,.02,0,0,0,0,0,0,0,0,0,.02,0,.02,0,.01,0,.02-.01,.03-.02,0,0,.02-.01,.02-.02,0,0,0-.02,0-.03v-.09s0-.01,0-.02c0,0,0-.01,0-.02,0,0,0,0-.01,0,0,0-.01,0-.02,0l-.32,.04-.27,.04s0,0-.01,0c0,0,0,0-.01,.01,0,0,0,.01,0,.02,0,0,0,.01,0,.02v.13m1.89,.9s.1,.04,.14,.04c.03,0,.05,0,.08-.02,.03-.01,.05-.03,.08-.05,.06-.03,.13-.04,.2-.03,.04,0,.08,.02,.12,.03,0-.02-.01-.04-.03-.05s-.03-.02-.05-.02h-.13s-.15-.02-.15-.02c-.11,0-.22,0-.33,0-.04,0-.07,0-.11,.02,0-.02-.01,0,0,.07h0s.05,.05,.05,.05h.01s.03-.01,.05-.01c0,0,.01-.01,.02-.02,0,0,.01,0,.02,0,0,0,.01,0,.02,0,0,0,.01,0,.02,.01Zm.1-.99h.02s0,0,0,0c.06-.04,.13-.03,.19-.02h.03s0,0,0,0c0,0,0,0,.01,0,0,0,0,0,0,0,0,0,0,0,0-.01,0,0,0,0,0-.01,0,0,0,0,0,0-.03-.02-.05-.04-.08-.05-.05-.02-.1-.03-.14-.03-.09,0-.18,.04-.26,.11,0,0,0,0,0,.01,0,0,0,0,0,.01,0,0,0,0,0,.01,0,0,0,0,.01,0,.07,0,.13,.02,.2,0m.23,.11s-.08-.02-.12-.01c-.07,0-.11,.12-.19,.11,.01,0,.02,.02,.04,.02,.05,0,.09-.06,.13-.09,.01,0,.02-.01,.03,0,.01,0,.02,0,.03,.02v.02s.09-.03,.12-.03c-.02-.01-.03-.02-.05-.03m.67-.03s.02,0,.02,0c.04,0,.09,0,.13,0,.06,.01,.13,.03,.19,.06,.12,.05,.24-.02,.37-.03,.18-.02,.36,.02,.53-.05,0,0,0,0,0-.01v-.06s0-.04,0-.04c-.21-.03-.41-.06-.6-.08-.19-.02-.35-.03-.49-.03-.14,0-.24,0-.32,0h-.07s0,.07,.02,.1c.01,.03,.04,.05,.06,.06,.03,.01,.07,.03,.1,.05l.07,.04m-4.86,.2s-.13,.16,0,.16,.18-.05,.14-.1c-.03-.05-.05-.09-.13-.05Z"/>
  <path class="bb" d="M5.97,8.35c.11-.31,.14-.71,.08-1.12-.03-.23-.1-.46-.2-.66-.1-.2-.24-.37-.4-.5-.41-.78-1.18-1.27-1.95-1.02-.6,.2-.55,.22-.7,.37-.28,.21-.51,.5-.66,.85,.1,.1,.07,.23,.07,.36,.16,.12,.26,.18,.24,.39,0,.05,.02,.17,0,.21,.11,.14,.12,.26,.07,.42-.04,.13-.17,.27-.17,.27,0,0,0-.02-.02,.03-.04,.14-.16,.39-.29,.45-.04,.12-.05,.24-.15,.3,.12,.69,.47,1.2,.84,1.29,.23,.59,.8,.92,1.4,.77,.23-.06,.44-.18,.62-.37,.09,.02,.18,.02,.27,0,.24-.06,.43-.28,.53-.56,.36-.19,.56-.75,.47-1.34,0-.05-.02-.1-.03-.15Z"/>
  <path class="ba" d="M5.98,8.29c.07-.28,.13-.68,.07-1.06-.03-.21-.09-.42-.19-.6-.09-.18-.22-.34-.36-.46-.37-.72-1.14-1.35-1.85-1.16-.24,.06-.67,.26-.86,.42-.27,.19-.48,.47-.62,.81,.07,.09,.07,.25,.07,.36,.16,.12,.28,.28,.26,.48,0,.05-.01,.1-.02,.15,.11,.14,.14,.26,.1,.42-.04,.13-.22,.3-.22,.3,0,0,0-.02-.02,.03-.04,.14-.09,.33-.22,.39-.04,.1-.09,.19-.15,.26,.23,.54,.79,1.02,1.09,1.08-.28,.72,.68,.89,1.22,.75,.21-.05,.4-.17,.57-.34,.08,.02,.16,.02,.25,0,.22-.06,.37-.28,.46-.54,.33-.17,.54-.66,.45-1.2,0-.03-.02-.07-.03-.1"/>
  <path class="bh" d="M5.69,7.93c.33-.13,.42-.32,.36-.7-.03-.21-.09-.42-.18-.6-.09-.18-.22-.34-.36-.46-.37-.72-1.14-1.35-1.85-1.16-.24,.06-1.04,.38-.73,1-.26-.34-.55-.15-.7,.23,.05,.09,.09,.2,.1,.31,.16,.12,.26,.32,.24,.52,0,.05-.01,.09-.03,.14,.1,.14,.15,.31,.1,.47-.02,.07-.06,.13-.1,.18-.04,.05-.09,.09-.14,.11,0,.05,0,.1-.02,.14-.03,.1-.08,.18-.15,.23v.03c.14,.64,1,.85,1.35,.93-.29,.72,.04,1.02,.59,.88,.22-.05,.47-.41,.85-.33,.22,.05,.38-.16,.47-.42,.18-.09,.33-.25,.42-.46,.09-.21,.12-.45,.08-.69,0-.05-.28-.32-.29-.36Z"/>
  <path class="ba" d="M5.24,9.57l-.03,.07,.05-.06s-.02,0-.03,0Z"/>
  <path class="bb" d="M5.86,7.75s.31-.04,.24,.3c-.07,.34-.35,.21-.4,.14-.05-.07-.14-.39,.16-.44Z"/>
  <path class="ba" d="M5.89,7.82s.28-.11,.21,.23c-.07,.34-.26,.13-.31,.07-.05-.07-.2-.24,.1-.29Z"/>
  <path class="bb" d="M4.33,9.83s.46-.24,.52,.11c.05,.34-.24,.37-.32,.34-.15-.05-.2-.44-.2-.44Z"/>
  <path class="ba" d="M4.33,9.83s.43-.25,.48,.09c.05,.34-.17,.27-.24,.24-.15-.05-.24-.33-.24-.33Z"/>
  <path class="bb" d="M2.84,9.1s.05-.45,.42-.36c.37,.09,.47,.73,.15,.73s-.56,.12-.57-.37"/>
  <path class="ba" d="M2.93,9.01s-.04-.35,.33-.26c.36,.09,.44,.55,.12,.55s-.46,.01-.45-.29Z"/>
  <path class="bb" d="M3.19,9.95s-.11,.29-.27,.08c-.16-.21,.03-.39,.09-.41,.06-.02,.28,.04,.18,.33Z"/>
  <path class="ba" d="M3,9.96s-.23-.04-.09-.23c.14-.18,.24,0,.26,.07,.02,.07-.04,.29-.17,.16Z"/>
  <path class="bb" d="M4.66,5.29s.4-.02,.32,.15c-.07,.18-.28,.13-.33,.1-.09-.06,0-.26,0-.26"/>
  <path class="ba" d="M4.66,5.29s.38-.04,.3,.14c-.07,.18-.2,.1-.25,.07-.09-.06-.06-.21-.06-.21"/>
  <path class="bb" d="M5.76,7.11s.13-.02,.1,.13c-.03,.14-.15,.09-.17,.06-.02-.03-.06-.17,.07-.19Z"/>
  <path class="ba" d="M5.77,7.14s.12-.05,.09,.1c-.03,.14-.11,.06-.13,.03-.02-.03-.09-.11,.04-.13Z"/>
  <path class="bb" d="M2.22,10.41s.13-.03,.09,.03c-.05,.06-.16,.06-.18,.05-.02,0-.04-.05,.09-.08Z"/>
  <path class="ba" d="M2.23,10.42s.12-.04,.08,.02c-.05,.06-.11,.04-.13,.03-.02,0-.07-.02,.06-.05Zm2.6-.77s.19-.69,.69-.38c0,0-.23-.08-.39,0-.12,.09-.23,.22-.3,.38"/>
  <path class="bn" d="M3.5,5.95c-.2,.05-.43,.27-.49,.41,0,.01,0,.02,0,.04,0,.01,0,.03,0,.04,0,.03,.03,.05,.08,.04,.08-.02,.18-.11,.27-.18h0c.07-.07,.16-.09,.24-.12,.07-.02,.14-.04,.15-.07,0,0,0-.01,0-.03-.04-.11-.13-.16-.26-.12"/>
  <path class="ay" d="M3.8,6.04c-.05-.14-.17-.2-.32-.16-.22,.06-.46,.29-.53,.45,0,.02-.02,.04-.02,.07,0,.02,0,.05,0,.07,.02,.05,.06,.1,.15,.08,.09-.02,.19-.11,.29-.19h0c.06-.06,.14-.08,.22-.11,.09-.03,.16-.05,.19-.11,0-.01,0-.03,0-.05,0-.02,0-.03,0-.05Zm-.05,.06s-.08,.05-.15,.08c-.08,.02-.16,.05-.24,.11h0c-.09,.08-.2,.17-.27,.19-.06,.02-.07-.01-.08-.04,0-.01,0-.02,0-.04,0-.01,0-.02,0-.04,.06-.14,.28-.36,.49-.41,.13-.03,.22,0,.26,.12,0,.02,0,.03,0,.03Z"/>
  <path class="br" d="M3.61,5.94s0,0,.01,.02c0,0,0,.01,0,.02,0,.01,0,.02-.01,.03,0,0-.01,.01-.02,.02-.04,.03-.08,.04-.12,.04,.02,.02,.03,.03,.05,.04-.09,.03-.18,.07-.27,.12l.06,.02c-.08,.01-.15,.05-.21,.11l.05,.03s-.03,.05-.05,.06c-.02,.01-.05,.02-.07,.02,0,0-.01,0-.02,0,.01,.02,.03,.04,.08,.03,.07-.02,.18-.11,.27-.18h0c.07-.07,.16-.09,.24-.12,.07-.02,.13-.04,.15-.07,0,0,0-.01,0-.03-.01-.04-.03-.07-.06-.09-.03-.02-.06-.04-.09-.04"/>
  <path class="bi" d="M3.4,6.03c-.06,0-.12,.06-.17,.11-.02,.01-.09,.07-.07,.1h0s.09-.09,.11-.11c.04-.03,.09-.05,.14-.08,0,0,0,0,0,0,0,0,0,0,0,0s0,0,0,0c0,0,0,0,0,0Z"/>
  <path class="bn" d="M4.68,5.94c.18-.02,.42,.08,.5,.18,0,0,.01,.02,.02,.03,0,.01,0,.02,0,.03,0,.02-.01,.05-.07,.06-.07,0-.17-.03-.27-.06h0c-.07-.03-.15-.02-.22-.02-.06,0-.12,.01-.14-.01,0,0,0,0,0-.03,0-.11,.07-.17,.19-.18"/>
  <path class="ay" d="M4.47,6.19s.1,.04,.18,.03c.07-.01,.14,0,.2,0h0c.1,.04,.21,.08,.29,.07,.07-.01,.1-.07,.11-.11,0-.02,0-.04,0-.06,0-.02-.02-.04-.03-.05-.09-.11-.34-.23-.54-.2-.14,.02-.22,.11-.23,.24,0,.01,0,.03,0,.04,0,.01,0,.03,.02,.04m.03-.07c0-.11,.07-.17,.19-.19,.18-.02,.42,.08,.5,.18,0,0,.01,.02,.02,.03,0,.01,0,.02,0,.03,0,.03-.01,.05-.07,.06-.07,0-.17-.03-.26-.06h-.01c-.07-.03-.15-.02-.22-.02-.06,0-.12,0-.14-.01,0,0,0,0,0-.03"/>
  <path class="br" d="M4.59,5.96s0,.01,0,.02c0,0,0,.01,0,.02,0,0,0,.02,.02,.02,0,0,.01,0,.02,0,.04,0,.07,0,.11-.01,0,.02-.02,.04-.04,.05,.08,0,.17,0,.25,0l-.05,.03c.07-.01,.14,0,.2,.02l-.04,.04s.04,.03,.06,.03c.02,0,.04,0,.06,0,0,0,.01,0,.02,0,0,.02-.02,.05-.06,.05-.07,0-.17-.03-.27-.06h0c-.07-.03-.15-.02-.22-.02-.06,0-.12,0-.14-.01,0,0,0,0,0-.03,0-.03,.01-.07,.03-.09,.02-.03,.04-.05,.06-.06Z"/>
  <path class="bi" d="M4.79,5.97c.06-.02,.12,0,.17,.03,.01,0,.09,.03,.08,.06h0s-.1-.05-.11-.05c-.04-.02-.09-.01-.13-.02,0,0,0,0,0,0,0,0,0,0,0,0s0,0,0,0c0,0,0,0,0,0"/>
  <path class="bb" d="M3.08,7.11c.14,.03,.22,.46-.06,.51-.28,.05-.21-.23-.19-.32,.05-.19,.1-.22,.24-.19Z"/>
  <path class="ba" d="M3.08,7.11c.14,.03,.19,.44-.09,.41-.16-.02-.13-.13-.11-.22,.05-.19,.06-.22,.2-.19Z"/>
  <path class="bb" d="M1.69,10.87c.13,.02,.21,.23-.05,.25-.27,.02-.2-.11-.18-.16,.05-.09,.1-.11,.23-.09"/>
  <path class="ba" d="M1.69,10.87c.13,.02,.18,.22-.09,.2-.15-.01-.12-.07-.1-.11,.05-.09,.05-.11,.19-.09Z"/>
  <path class="bb" d="M2.9,8.34s.02-.13,.12-.11c.11,.03,.14,.21,.05,.22-.1,0-.17,.03-.17-.11Z"/>
  <path class="ba" d="M2.93,8.31s0-.1,.1-.08c.11,.03,.13,.16,.04,.16s-.14,0-.13-.09Z"/>
  <path class="bb" d="M1.57,10.39s.02-.07,.13-.06c.11,.02,.14,.12,.04,.12-.1,0-.17,.02-.17-.06Z"/>
  <path class="ba" d="M1.6,10.37s0-.06,.1-.04c.11,.02,.13,.09,.04,.09s-.14,0-.13-.05Z"/>
  <path class="aj" d="M3.93,8.27s.22,.34,.7,.24c.88-.18,.79-.93,.79-.93,0,0-1.67,.44-1.49,.69"/>
  <path class="ba" d="M4.21,8.44s-.24,.43,0,.48c.23,.05,.32,.06,.34-.07,.02-.13-.05-.34-.05-.34l-.28-.06Zm1-.32s.35,.28,.16,.44c-.2,.16-.27,.21-.33,.11-.04-.11-.06-.22-.07-.34l.24-.2Z"/>
  <path class="ag" d="M4.16,8.42s-.24,.43,0,.48c.23,.05,.32,.06,.34-.07,.02-.13-.05-.34-.05-.34l-.28-.06Zm1.06-.37s.35,.28,.16,.44c-.2,.16-.28,.21-.33,.11-.04-.11-.06-.22-.07-.34l.24-.2Z"/>
  <path class="ba" d="M3.9,8.23s.23,.38,.7,.24c1.08-.31,.82-.89,.82-.89,0,0-1.7,.4-1.52,.65"/>
  <path class="bh" d="M3.85,8.18s.23,.38,.7,.24c1.08-.31,.88-.92,.88-.92,0,0-1.76,.42-1.58,.68Z"/>
  <path class="ag" d="M4.51,7.08c-.04-.29,.07-.49,.31-.55,.03,0,.06-.01,.09-.02,.24-.02,.41,.14,.44,.44,.03,.29-.08,.64-.29,.69h-.01c-.26,.05-.49-.26-.54-.58"/>
  <path class="bu" d="M4.47,7.09c.05,.34,.3,.68,.59,.62h.01c.24-.06,.36-.44,.32-.75-.03-.26-.17-.52-.49-.49-.03,0-.06,0-.1,.02-.3,.08-.37,.36-.34,.6m.58,.57c-.26,.05-.5-.26-.54-.58-.04-.28,.07-.48,.31-.54,.03,0,.06-.01,.09-.02,.25-.02,.41,.14,.45,.44,.03,.29-.08,.64-.29,.69h-.01Z"/>
  <path class="ar" d="M4.68,6.92s-.01,0-.02,0c0,0,.01,.02,.02,.03,0,.01,0,.02,0,.03,0,.01,0,.02,0,.04,0,.01,0,.02-.01,.03,0,0-.01,.02-.02,.02,0,0-.02,0-.03,.01,0,0-.02,0-.03,0,0,0-.02,0-.03-.02,0,.02,0,.04,0,.05,0,.03,.02,.06,.04,.09,.02,.02,.04,.04,.07,.05,.03,0,.06,0,.08,0,.03-.01,.05-.04,.06-.06,.02-.03,.02-.06,.02-.1,0-.03,0-.07-.02-.1-.02-.03-.04-.05-.06-.06-.03-.01-.05-.02-.08-.01Z"/>
  <path class="an" d="M4.54,7.23c.05,.05,.09,.11,.14,.15,.03,.04,.07,.07,.12,.09,.04,.02,.09,.03,.14,.02,.15-.02,.29-.16,.36-.33,.03-.07,.04-.15,.04-.23v.03c.04,.29-.07,.64-.28,.69h-.01c-.22,.05-.42-.17-.51-.43"/>
  <path class="ag" d="M4.44,6.91c-.07-.38-.3-.56-.61-.47-.04,0-.08,.02-.12,.04-.31,.13-.45,.45-.37,.85,.08,.38,.37,.74,.65,.67h.02c.35-.11,.51-.66,.43-1.08"/>
  <path class="bu" d="M3.81,6.36s-.09,.02-.13,.04c-.4,.17-.47,.59-.4,.93,.09,.41,.4,.8,.72,.72h.02c.38-.12,.55-.71,.47-1.17-.06-.32-.27-.63-.68-.53Zm.18,1.63c-.28,.07-.57-.3-.65-.67-.09-.4,.05-.71,.36-.85,.04-.02,.08-.03,.12-.04,.31-.08,.54,.1,.61,.48,.07,.42-.08,.97-.43,1.08h-.01"/>
  <path class="ar" d="M4.17,6.84s-.02,0-.03,0c.01,0,.02,.02,.03,.04,0,.01,.01,.03,.01,.05,0,.02,0,.03,0,.05,0,.02,0,.03-.02,.04,0,.01-.02,.02-.03,.03-.01,0-.02,.01-.04,.02-.01,0-.03,0-.04,0-.01,0-.02-.01-.03-.02,0,.02,0,.05,0,.07,0,.05,.03,.09,.05,.12,.03,.03,.06,.05,.1,.06,.04,0,.07,0,.11-.01,.03-.02,.06-.05,.08-.09,.02-.04,.03-.08,.03-.13,0-.05-.01-.09-.03-.13-.02-.04-.05-.07-.08-.09-.03-.02-.07-.02-.11-.01Z"/>
  <path class="an" d="M4.46,7.11c-.03,.1-.07,.19-.11,.29-.03,.07-.06,.13-.1,.19-.05,.06-.1,.1-.17,.12-.2,.08-.43,0-.58-.17-.06-.07-.12-.16-.16-.26v.04c.09,.38,.38,.74,.66,.67h.01c.29-.1,.45-.5,.45-.88"/>
  <path class="bb" d="M2.75,5.41l-.09,.15s.53,.27,1.06,.12c.33-.09,.63-.26,.92-.48-.03,0-.05-.01-.07-.03-.22,0-1.81,.24-1.81,.24Z"/>
  <path class="bh" d="M1.3,10.64s.12,.11,.06,.2c-.05,.08-.31,.06-.22-.17,.1-.23,.12-.4,.16-.03"/>
  <path class="ba" d="M1.6,9.44s.04,.06,.04,.09,0,.07,0,.11c-.01,.03-.03,.06-.05,.09-.02,.02-.05,.03-.08,.03-.03,0-.06,0-.08-.03-.03-.02-.05-.05-.06-.08-.01-.03-.02-.07-.01-.11,0-.04,.02-.07,.04-.1,.01-.02,.03-.03,.05-.04s.04-.02,.06-.02c.02,0,.04,0,.06,.01,.02,0,.04,.02,.05,.04Z"/>
  <path class="bh" d="M2.27,8.66s.03,.04,.03,.06c0,.02,.01,.04,.01,.07,0,.02,0,.05,0,.07,0,.02-.02,.04-.03,.06l-.58,.76s-.03,.03-.05,.04c-.02,0-.04,.02-.06,.02-.02,0-.04,0-.06-.01-.02,0-.03-.02-.05-.04-.01-.02-.03-.04-.03-.06,0-.02-.01-.05-.01-.07,0-.02,0-.05,0-.07,0-.02,.02-.04,.03-.06l.58-.76s.03-.03,.05-.04,.04-.02,.06-.02c.02,0,.04,0,.06,.01,.02,0,.03,.02,.05,.04"/>
  <path class="bh" d="M1.51,9.55l.08,.04s.02,.02,.03,.03,.02,.03,.02,.04c0,.02,0,.03,0,.05,0,.02,0,.03,0,.05l-.41,.75s-.03,.06-.06,.07c-.03,.01-.05,.01-.08,0l-.08-.04s-.02-.02-.03-.03c0-.01-.02-.03-.02-.04,0-.02,0-.03,0-.05,0-.02,0-.03,0-.05l.41-.75s.01-.03,.02-.04c0-.01,.02-.02,.03-.03,.01,0,.03,0,.04,0s.03,0,.04,.01"/>
  <path class="bh" d="M.95,10.35s-.55,.13-.4,.3c.15,.17,.15,.23,.33,.2,.12-.02,.51-.31,.39-.37-.12-.07-.26-.19-.31-.13Z"/>
  <path class="ba" d="M1.14,10.78v-.02c-.02,.15,.18,.16,.23,.09,0-.02,.02-.04,.02-.06s0-.04-.02-.06c0,.14-.17,.16-.23,.05Zm1.1-1.92s-.04,.07-.06,.1c0,.03-.02,.05-.03,.07-.12,.16-.23,.32-.34,.49l-.04,.07,.51-.68s.03-.05,.03-.08c-.01,0-.03,0-.04,0-.01,0-.02,.01-.03,.02m-.67,.74c.03,.12,.02,.22,.03,.25l.03-.07s.02-.03,.02-.05c.02,0,.03-.02,.04-.03,.02-.02,.03-.04,.04-.06-.04-.01-.08,.05-.17-.05Zm-.5,1.13s-.03,0-.04,0c-.05,.02-.1,.02-.16,.04-.05,.01-.1,.04-.15,.02-.02,0-.03-.01-.04-.03-.01-.01-.02-.03-.03-.05-.01,0-.03-.02-.04-.04-.02,0-.03-.02-.05-.03-.02,0-.03-.02-.04-.04,0,.01,0,.03,0,.04,0,.01,.01,.02,.02,.03,.15,.17,.15,.23,.32,.2,.09-.03,.17-.07,.24-.14-.01,0-.03,0-.04,0"/>
  <path class="ai" d="M3.07,4.27l-.32,1.05s.79,.23,1.3,.03c.51-.21,.17-.08,.17-.08l-.07-.08,.27-.28-.1-.76-.52,.88-.34,.07-.39-.83Z"/>
  <path class="ae" d="M2.37,4.6l.32,.91s.65,.23,1.16,.02c.51-.21,.71-.37,.71-.37l.12-1.07-.61,.91-.65-1.04-.26,1.14-.79-.5Z"/>
  <path class="bv" d="M2.37,4.6l.32,.91-.14-.68,.63,.52,.25-.86,.67,.69,.49-.76-.04,.74,.12-1.07-.61,.91-.65-1.04-.26,1.14-.79-.5Z"/>
  <path class="bv" d="M3.63,4.58l.18,.5-.37-.18,.31,.67,.18-.07-.24-.27h.23s-.29-.65-.29-.65Z"/>
  <path class="bb" d="M2.48,5.79s.05-.28,.33-.23c.27,.04,.34,.43,.1,.44-.24,.01-.43,.09-.42-.21"/>
  <path class="ba" d="M2.55,5.72s-.02-.21,.26-.17c.27,.04,.32,.32,.08,.33-.24,.02-.35,.03-.33-.16Z"/>
  <path class="bb" d="M1.68,10.75s.05-.16,.33-.13c.27,.03,.33,.24,.09,.25-.24,0-.43,.05-.42-.12"/>
  <path class="ba" d="M1.75,10.72s-.02-.12,.26-.09c.27,.03,.32,.18,.07,.19-.24,0-.35,.01-.33-.09"/>
  <path class="bh" d="M6.6,7.49s.01-.2,.09-.26c.06-.05,.2-.02,.12,.32-.03,.15-.22,.05-.22-.06Z"/>
  <path class="bb" d="M6.64,7.85s-.11-.44,.01-.37c.29,.15,.35,.35,.34,.5-.05,.18-.29,.16-.35-.13Z"/>
  <path class="bh" d="M6.64,7.88s-.11-.51,0-.44c.29,.15,.32,.37,.34,.57-.05,.18-.29,.15-.35-.13Z"/>
  <path class="ba" d="M3.64,8.26c-.11,.12,.29,1.08,.47,1.18,.18,.1,.41,0,.88-.2,.47-.2,.55-.35,.6-.5,.05-.15,.05-1.17-.14-1.11-.09,.03,.01,.27-.51,.46-.52,.19-1.24,.1-1.3,.17"/>
  <path class="aj" d="M3.64,8.19c-.11,.13,.29,1.08,.47,1.18,.18,.11,.41,0,.88-.2,.47-.2,.55-.35,.6-.5,.05-.15,.05-1.17-.14-1.11-.09,.03,.01,.27-.51,.46-.52,.19-1.24,.1-1.3,.17"/>
  <path class="ag" d="M3.73,8.24c-.11,.12,.19,.98,.38,1.12,.17,.13,.41,.05,.88-.16,.47-.2,.55-.35,.6-.5s.05-1.17-.14-1.11c-.09,.03,.01,.27-.51,.46-.52,.19-1.16,.12-1.22,.19Z"/>
  <path class="aq" d="M4.74,8.61c.47-.16,.79-.31,.88-.33v-.06c-.07,.05-.42,.23-.87,.36-.68,.21-.94,.14-.97,.14,0,.02,.01,.05,.02,.07,.32-.02,.63-.08,.93-.18"/>
  <path class="aj" d="M3.7,10.8s.89-.23,1.57,.06c.68,.29,.71,.71,.95,0,.24-.71,.25-1.33,.05-1.36-.2-.03-.42,.14-.5,.94-.77-.33-1.66-.31-2.03-.18,0,0-.63,.33-.04,.53Z"/>
  <path class="bh" d="M3.68,10.74s.89-.23,1.57,.06c.68,.29,.71,.71,.95,0,.25-.71,.25-1.33,.05-1.36-.2-.03-.42,.14-.5,.94-.77-.33-1.65-.31-2.03-.18,0,0-.63,.33-.04,.53Z"/>
  <path class="ba" d="M6.23,10.39c-.07,.29-.09,.53-.28,.75l-.06,.04c.12,.05,.19-.03,.31-.38,.2-.59,.24-1.13,.13-1.3-.26-.3-.04,.64-.1,.89m-1.9-.26c-.3-.02-.42,.02-.6,.08,0,0-.63,.33-.04,.54,0,0,.07-.02,.44-.07,.34-.02-.12-.33,.2-.54Zm.95,.29c-.02-.07-.05-.14-.09-.21-.2-.05-.1,0-.12,.21-.02,.23-.26,.09-.05,.18,.13,.06,.24-.09,.25-.18Z"/>
  <rect class="bf" width="16" height="16"/>
</svg>